<?xml version="1.0" standalone="no"?>
<!DOCTYPE svg PUBLIC "-//W3C//DTD SVG 20010904//EN"
 "http://www.w3.org/TR/2001/REC-SVG-20010904/DTD/svg10.dtd">
<svg version="1.0" xmlns="http://www.w3.org/2000/svg"
 width="300.000000pt" height="150.000000pt" viewBox="0 0 300.000000 150.000000"
 preserveAspectRatio="xMidYMid meet">

<g transform="translate(0.000000,150.000000) scale(0.100000,-0.100000)"
fill="#000000" stroke="none">
<path d="M0 750 l0 -750 1500 0 1500 0 0 750 0 750 -1500 0 -1500 0 0 -750z
m255 289 c-4 -5 -19 -9 -33 -7 -23 3 -27 -1 -27 -24 -1 -15 -4 -30 -8 -34 -4
-4 -7 11 -7 34 l0 42 41 0 c26 0 38 -4 34 -11z m415 -29 c0 -22 -4 -40 -10
-40 -5 0 -10 15 -10 34 0 31 -2 34 -24 30 -14 -2 -28 0 -31 6 -4 6 10 10 34
10 l41 0 0 -40z m-172 -27 c42 -20 66 -51 92 -120 11 -31 27 -64 34 -75 12
-17 12 -25 0 -54 -8 -18 -14 -51 -14 -72 l0 -39 -54 -6 c-73 -7 -114 -31 -133
-74 -11 -28 -17 -33 -24 -22 -29 46 4 117 75 163 63 40 86 77 86 136 0 70 -47
133 -113 151 -107 29 -208 -80 -191 -205 5 -40 5 -41 -10 -16 -38 62 -5 181
61 221 65 41 121 44 191 12z m9 -67 c28 -31 33 -43 33 -87 0 -46 -4 -55 -39
-90 -35 -35 -44 -39 -89 -39 -54 0 -69 -10 -54 -36 7 -12 -1 -38 -29 -95 -22
-44 -44 -79 -50 -79 -23 0 -49 22 -49 42 0 31 69 150 91 155 26 7 24 22 -7 54
-34 36 -43 103 -20 148 26 49 71 73 130 68 42 -4 55 -10 83 -41z m364 -23 c5
-5 24 -54 43 -109 38 -111 33 -112 76 25 l27 86 46 3 47 3 0 -150 0 -151 -30
0 -29 0 -3 108 -3 107 -34 -105 c-19 -58 -39 -108 -44 -111 -28 -19 -47 6 -81
105 l-34 101 -1 -102 -1 -103 -30 0 -30 0 0 153 0 154 36 -2 c20 -2 40 -7 45
-12z m1118 -9 c38 -32 43 -74 9 -74 -12 0 -34 12 -50 27 -24 23 -31 25 -53 15
-49 -22 -28 -53 48 -72 140 -36 121 -190 -23 -190 -70 0 -120 37 -120 89 0 31
37 26 70 -9 31 -33 60 -38 85 -14 27 28 13 48 -48 69 -93 34 -123 74 -95 131
28 59 123 74 177 28z m-769 -9 c0 -21 -5 -25 -30 -25 -25 0 -30 4 -30 25 0 21
5 25 30 25 25 0 30 -4 30 -25z m540 -125 l0 -150 -42 -1 c-24 -1 -64 -2 -90
-2 -56 -2 -82 18 -95 71 -26 104 50 182 145 149 21 -8 22 -6 22 37 0 44 1 46
30 46 l30 0 0 -150z m-317 71 c25 -10 43 -48 41 -86 -1 -11 -2 -46 -3 -77 -1
-58 -1 -58 -31 -58 l-31 0 2 74 c2 81 -1 91 -30 99 -40 10 -54 -14 -55 -94
l-1 -74 -30 0 -30 0 -1 108 -1 107 29 0 c15 0 28 -4 28 -10 0 -5 15 -3 33 5
39 17 48 18 80 6z m780 0 c30 -12 67 -49 67 -68 0 -21 -52 -15 -77 9 -22 21
-26 21 -51 7 -21 -11 -28 -24 -30 -53 -6 -70 53 -101 96 -51 28 33 62 34 62 2
0 -62 -112 -99 -177 -58 -22 14 -35 33 -43 60 -18 68 5 120 65 147 36 16 56
17 88 5z m285 -3 l52 1 0 -110 0 -110 -42 1 c-24 0 -62 -2 -85 -6 -38 -5 -46
-3 -71 23 -39 38 -49 94 -27 144 19 42 68 72 100 62 11 -3 44 -6 73 -5z m287
-13 c23 -22 25 -32 25 -115 l0 -90 -30 0 -30 0 0 74 c0 80 -15 111 -48 99 -37
-13 -42 -25 -42 -99 l0 -74 -30 0 -30 0 0 110 0 110 30 0 c17 0 30 -4 30 -9 0
-6 12 -3 28 5 39 20 70 17 97 -11z m-1575 -95 l0 -110 -30 0 -31 0 2 110 1
110 29 0 29 0 0 -110z m-1026 -215 c-3 -16 0 -25 8 -26 58 -3 74 -19 20 -19
l-42 0 0 41 c0 22 4 38 9 34 5 -3 8 -17 5 -30z m476 -5 l0 -40 -42 0 c-23 0
-38 3 -34 8 4 4 17 7 29 7 17 0 23 7 25 33 5 46 22 40 22 -8z"/>
<path d="M383 942 c-36 -6 -80 -57 -85 -97 -16 -135 160 -183 219 -59 15 31
16 39 3 76 -22 61 -73 91 -137 80z m100 -53 c15 -16 27 -41 27 -55 0 -55 -49
-108 -81 -88 -8 4 -9 3 -5 -4 9 -15 -25 -16 -57 -1 -29 13 -57 58 -57 92 0 14
11 39 25 56 42 49 102 49 148 0z"/>
<path d="M366 871 c-37 -41 11 -123 63 -106 45 14 57 92 18 117 -22 14 -64 8
-81 -11z m38 -47 c4 -9 13 -14 21 -10 8 3 15 1 15 -4 0 -11 -24 -13 -57 -4
-17 5 -19 9 -10 20 16 18 24 17 31 -2z"/>
<path d="M278 606 c-29 -60 -32 -96 -8 -96 5 0 25 31 44 69 26 51 32 71 23 80
-19 19 -26 13 -59 -53z"/>
<path d="M1635 772 c-67 -13 -56 -132 12 -132 43 0 68 64 43 109 -11 22 -28
29 -55 23z"/>
<path d="M2411 763 c-27 -19 -29 -83 -3 -106 39 -36 92 -5 92 53 -1 50 -51 80
-89 53z"/>
</g>
</svg>
