<?xml version="1.0" standalone="no"?>
<!DOCTYPE svg PUBLIC "-//W3C//DTD SVG 1.0//EN" "http://www.w3.org/TR/2001/REC-SVG-20010904/DTD/svg10.dtd">
<svg xmlns="http://www.w3.org/2000/svg" xmlns:xlink="http://www.w3.org/1999/xlink" id="body_1" width="2000" height="1000">

<g transform="matrix(6.666667 0 0 6.666667 0 0)">
	<g transform="matrix(0.1 0 -0 -0.1 0 150)">
        <path d="M0 750L0 0L1500 0L3000 0L3000 750L3000 1500L1500 1500L0 1500L0 750zM255 1039C 251 1034 236 1030 222 1032C 199 1035 195 1031 195 1008C 194 993 191 978 187 974C 183 970 180 985 180 1008L180 1008L180 1050L221 1050C 247 1050 259 1046 255 1039zM670 1010C 670 988 666 970 660 970C 655 970 650 985 650 1004C 650 1035 648 1038 626 1034C 612 1032 598 1034 595 1040C 591 1046 605 1050 629 1050L629 1050L670 1050L670 1010zM498 983C 540 963 564 932 590 863C 601 832 617 799 624 788C 636 771 636 763 624 734C 616 716 610 683 610 662L610 662L610 623L556 617C 483 610 442 586 423 543C 412 515 406 510 399 521C 370 567 403 638 474 684C 537 724 560 761 560 820C 560 890 513 953 447 971C 340 1000 239 891 256 766C 261 726 261 725 246 750C 208 812 241 931 307 971C 372 1012 428 1015 498 983zM507 916C 535 885 540 873 540 829C 540 783 536 774 501 739C 466 704 457 700 412 700C 358 700 343 690 358 664C 365 652 357 626 329 569C 307 525 285 490 279 490C 256 490 230 512 230 532C 230 563 299 682 321 687C 347 694 345 709 314 741C 280 777 271 844 294 889C 320 938 365 962 424 957C 466 953 479 947 507 916zM871 893C 876 888 895 839 914 784C 952 673 947 672 990 809L990 809L1017 895L1063 898L1110 901L1110 751L1110 600L1080 600L1051 600L1048 708L1045 815L1011 710C 992 652 972 602 967 599C 939 580 920 605 886 704L886 704L852 805L851 703L850 600L820 600L790 600L790 753L790 907L826 905C 846 903 866 898 871 893zM1989 884C 2027 852 2032 810 1998 810C 1986 810 1964 822 1948 837C 1924 860 1917 862 1895 852C 1846 830 1867 799 1943 780C 2083 744 2064 590 1920 590C 1850 590 1800 627 1800 679C 1800 710 1837 705 1870 670C 1901 637 1930 632 1955 656C 1982 684 1968 704 1907 725C 1814 759 1784 799 1812 856C 1840 915 1935 930 1989 884zM1220 875C 1220 854 1215 850 1190 850C 1165 850 1160 854 1160 875C 1160 896 1165 900 1190 900C 1215 900 1220 896 1220 875zM1760 750L1760 600L1718 599C 1694 598 1654 597 1628 597C 1572 595 1546 615 1533 668C 1507 772 1583 850 1678 817C 1699 809 1700 811 1700 854C 1700 898 1701 900 1730 900L1730 900L1760 900L1760 750zM1443 821C 1468 811 1486 773 1484 735C 1483 724 1482 689 1481 658C 1480 600 1480 600 1450 600L1450 600L1419 600L1421 674C 1423 755 1420 765 1391 773C 1351 783 1337 759 1336 679L1336 679L1335 605L1305 605L1275 605L1274 713L1273 820L1302 820C 1317 820 1330 816 1330 810C 1330 805 1345 807 1363 815C 1402 832 1411 833 1443 821zM2223 821C 2253 809 2290 772 2290 753C 2290 732 2238 738 2213 762C 2191 783 2187 783 2162 769C 2141 758 2134 745 2132 716C 2126 646 2185 615 2228 665C 2256 698 2290 699 2290 667C 2290 605 2178 568 2113 609C 2091 623 2078 642 2070 669C 2052 737 2075 789 2135 816C 2171 832 2191 833 2223 821zM2508 818L2560 819L2560 709L2560 599L2518 600C 2494 600 2456 598 2433 594C 2395 589 2387 591 2362 617C 2323 655 2313 711 2335 761C 2354 803 2403 833 2435 823C 2446 820 2479 817 2508 818zM2795 805C 2818 783 2820 773 2820 690L2820 690L2820 600L2790 600L2760 600L2760 674C 2760 754 2745 785 2712 773C 2675 760 2670 748 2670 674L2670 674L2670 600L2640 600L2610 600L2610 710L2610 820L2640 820C 2657 820 2670 816 2670 811C 2670 805 2682 808 2698 816C 2737 836 2768 833 2795 805zM1220 710L1220 600L1190 600L1159 600L1161 710L1162 820L1191 820L1220 820L1220 710zM194 495C 191 479 194 470 202 469C 260 466 276 450 222 450L222 450L180 450L180 491C 180 513 184 529 189 525C 194 522 197 508 194 495zM670 490L670 450L628 450C 605 450 590 453 594 458C 598 462 611 465 623 465C 640 465 646 472 648 498C 653 544 670 538 670 490z" stroke="none" fill="#000000" fill-rule="nonzero" />
        <path d="M383 942C 347 936 303 885 298 845C 282 710 458 662 517 786C 532 817 533 825 520 862C 498 923 447 953 383 942zM483 889C 498 873 510 848 510 834C 510 779 461 726 429 746C 421 750 420 749 424 742C 433 727 399 726 367 741C 338 754 310 799 310 833C 310 847 321 872 335 889C 377 938 437 938 483 889z" stroke="none" fill="#000000" fill-rule="nonzero" />
        <path d="M366 871C 329 830 377 748 429 765C 474 779 486 857 447 882C 425 896 383 890 366 871zM404 824C 408 815 417 810 425 814C 433 817 440 815 440 810C 440 799 416 797 383 806C 366 811 364 815 373 826C 389 844 397 843 404 824z" stroke="none" fill="#000000" fill-rule="nonzero" />
        <path d="M278 606C 249 546 246 510 270 510C 275 510 295 541 314 579C 340 630 346 650 337 659C 318 678 311 672 278 606z" stroke="none" fill="#000000" fill-rule="nonzero" />
        <path d="M1635 772C 1568 759 1579 640 1647 640C 1690 640 1715 704 1690 749C 1679 771 1662 778 1635 772z" stroke="none" fill="#000000" fill-rule="nonzero" />
        <path d="M2411 763C 2384 744 2382 680 2408 657C 2447 621 2500 652 2500 710C 2499 760 2449 790 2411 763z" stroke="none" fill="#000000" fill-rule="nonzero" />
	</g>
</g>
</svg>
