<?xml version="1.0" encoding="UTF-8"?>
<svg id="Layer_1" data-name="Layer 1" xmlns="http://www.w3.org/2000/svg" xmlns:xlink="http://www.w3.org/1999/xlink" viewBox="0 0 90 60">
  <defs>
    <style>
      .cls-1 {
        fill: #fff;
      }

      .cls-2 {
        fill: url(#radial-gradient);
      }

      .cls-3 {
        fill: url(#radial-gradient-2);
      }

      .cls-4 {
        fill: none;
      }

      .cls-5 {
        fill: url(#linear-gradient);
      }

      .cls-6 {
        fill: #7a4217;
      }
    </style>
    <radialGradient id="radial-gradient" cx="46.01" cy="32.21" fx="46.01" fy="32.21" r="22.19" gradientTransform="translate(0 62) scale(1 -1)" gradientUnits="userSpaceOnUse">
      <stop offset="0" stop-color="#ecb71a"/>
      <stop offset="0" stop-color="#dda517"/>
      <stop offset=".99" stop-color="#fdd649"/>
    </radialGradient>
    <radialGradient id="radial-gradient-2" cx="-141.99" cy="39.61" fx="-141.99" fy="39.61" r="7.97" gradientTransform="translate(-98.15 62) rotate(-180)" gradientUnits="userSpaceOnUse">
      <stop offset="0" stop-color="#ecc440"/>
      <stop offset=".03" stop-color="#f5c230"/>
      <stop offset=".51" stop-color="#fffa8a"/>
      <stop offset=".71" stop-color="#ddac17"/>
      <stop offset="1" stop-color="#ffff95"/>
    </radialGradient>
    <linearGradient id="linear-gradient" x1="-151.59" y1="39.58" x2="-132.39" y2="39.58" gradientTransform="translate(-98.15 62) rotate(-180)" gradientUnits="userSpaceOnUse">
      <stop offset="0" stop-color="#ecb71a"/>
      <stop offset="0" stop-color="#dda517"/>
      <stop offset=".46" stop-color="#b57a11"/>
      <stop offset=".99" stop-color="#fdd649"/>
    </linearGradient>
  </defs>
  <rect width="90" height="60"/>
  <g>
    <path class="cls-2" d="M43.74,54.14c-3.48-5.11-1.95-12.36,3.38-16.17,.81-.59,1.69-1.07,2.6-1.5,6.38-2.9,9.92-9.73,8.52-16.5-1.4-6.74-7.32-11.62-14.22-11.78-7.03-.16-12.85,4.62-14.71,12.04-1.14,4.52-.81,8.85,.81,13.73-.42-.59-.88-1.17-1.27-1.76-5.21-8.46-2.41-19.52,6.21-24.47,8.59-4.95,19.59-1.76,24.27,7.03,1.14,2.15,1.82,4.39,2.34,6.77,.42,1.92,1.82,3.61,2.8,5.4,.26,.46,.62,.85,.94,1.27,.49,.68,.42,1.3-.2,1.85-.42,.36-.91,.68-1.27,1.11-.23,.26-.55,.85-.42,.98,1.01,1.3,.07,1.95-.88,2.7,.72,.85,1.07,1.59,.23,2.67-.36,.46-.13,1.53,.1,2.21,.65,2.15,.07,3.09-2.18,3.16-2.34,.1-4.75-.07-7.06,.33-5.43,.91-8.69,4.36-9.73,9.79-.07,.36-.16,.75-.26,1.17l-.03-.03Z"/>
    <path class="cls-1" d="M55.65,26.78c2.15-5.86-.39-12.59-5.95-15.52-5.66-2.96-12.69-1.27-16.24,3.87-1.82,2.67-2.64,5.6-2.21,8.78,.55,4.26,2.77,7.48,6.54,9.66-.26,.55-.49,1.04-.75,1.53-.23,.49-.49,.94-.72,1.4l-.29-.16c-.33-.16-.65-.26-1.01-.26h0c-.85,0-1.69,.42-2.11,1.24l-3.71,7.06-2.99,5.73c-.26,.52-.33,1.11-.2,1.63h0c.1,.75,.59,1.37,1.46,1.79,.59,.29,1.2,.62,1.82,.91,1.5,.72,2.67,.29,3.42-1.17,1.59-3.22,3.19-6.44,4.78-9.63l1.53-2.93,.1-.2c.23-.42,.29-.85,.26-1.3-.07-.75-.52-1.43-1.24-1.82l-.65-.33c.52-1.04,.98-1.98,1.46-2.96,7.65,2.86,14.58-1.5,16.72-7.39l-.03,.07Zm-18.25,11.78c.62,.33,.78,.81,.46,1.43-2.11,4.29-4.26,8.62-6.41,12.92-.13,.23-.33,.42-.55,.68-.33-.07-.62-.07-.88-.16-.65-.29-1.3-.62-1.95-.94-.88-.46-1.01-.85-.59-1.76,1.69-3.45,3.42-6.87,5.11-10.31,.39-.78,.78-1.56,1.17-2.34,.36-.72,.81-.88,1.53-.52,.72,.33,1.4,.65,2.08,1.01h.03Zm-4.23-12.14c-2.21-5.73,.75-12.36,6.51-14.58,5.92-2.28,12.49,.65,14.77,6.61,2.21,5.82-.72,12.33-6.57,14.58-5.92,2.25-12.43-.65-14.71-6.57v-.03Z"/>
    <g>
      <path class="cls-1" d="M22.3,8.85c-.36,0-.62-.29-.62-.62V1.73c0-.36,.29-.62,.62-.62h6.54c.36,0,.62,.29,.62,.62s-.29,.62-.62,.62h-5.92v5.89c0,.36-.29,.62-.62,.62Zm0-6.8v6.18s0-6.18,0-6.18Z"/>
      <path class="cls-1" d="M67.72,8.85c-.36,0-.62-.29-.62-.62V2.34h-5.92c-.36,0-.62-.29-.62-.62s.29-.62,.62-.62h6.54c.36,0,.62,.29,.62,.62v6.51c0,.36-.29,.62-.62,.62Zm-6.54-7.13h6.54v0h-6.54Z"/>
      <path class="cls-1" d="M28.81,58.89h-6.54c-.36,0-.62-.29-.62-.62v-6.51c0-.36,.29-.62,.62-.62s.62,.29,.62,.62v5.89h5.92c.36,0,.62,.29,.62,.62s-.29,.62-.62,.62Zm-6.54-7.13h0v6.51h0v-6.51Z"/>
      <path class="cls-1" d="M67.72,58.89h-6.54c-.36,0-.62-.29-.62-.62s.29-.62,.62-.62h5.92v-5.89c0-.36,.29-.62,.62-.62s.62,.29,.62,.62v6.51c0,.36-.29,.62-.62,.62Zm-6.54-.62h0Zm6.54-6.51h0v0Z"/>
    </g>
    <g>
      <path class="cls-3" d="M43.91,14.41c4.39,0,7.97,3.61,7.94,8.04,0,4.39-3.61,7.97-8.04,7.94-4.39,0-7.97-3.61-7.94-8.04,0-4.39,3.61-7.97,8.04-7.94h0Z"/>
      <path class="cls-5" d="M34.27,22.35v.07c0,5.27,4.26,9.57,9.53,9.6h.13c5.24-.03,9.5-4.26,9.53-9.53v-.07c0-5.27-4.26-9.57-9.53-9.6h-.07c-5.27,0-9.57,4.26-9.6,9.53Zm1.63,0c0-4.39,3.61-7.97,8.04-7.94s7.97,3.61,7.94,8.04c0,4.39-3.61,7.97-8.04,7.94-4.39,0-7.97-3.61-7.94-8.04Z"/>
      <path class="cls-6" d="M46.61,19.3s.29,.23,.46,.33c.03-.07,.1-.13,.13-.16,.39-.49,1.04-.39,1.27,.2,.16,.46,.29,.91,.46,1.33,.07,.13,.16,.23,.26,.33,.16,.16,.36,.29,.59,.46-.13-.42-.26-.78-.36-1.14-.13-.42-.26-.85-.42-1.27-.23-.55-.65-.81-1.2-.81-.49,0-.91,.26-1.14,.75h-.03Z"/>
      <path class="cls-6" d="M46.61,19.3s.29,.23,.46,.33c.03-.07,.1-.13,.13-.16,.39-.49,1.04-.39,1.27,.2,.16,.46,.29,.91,.46,1.33,.07,.13,.16,.23,.26,.33,.16,.16,.36,.29,.59,.46-.13-.42-.26-.78-.36-1.14-.13-.42-.26-.85-.42-1.27-.23-.55-.65-.81-1.2-.81-.49,0-.91,.26-1.14,.75h-.03Z"/>
      <path class="cls-6" d="M41.07,25.51s-.29-.23-.46-.33c-.03,.07-.1,.13-.13,.16-.36,.49-1.04,.42-1.27-.16-.16-.46-.29-.91-.46-1.33-.07-.13-.16-.23-.26-.33-.16-.16-.36-.29-.59-.46,.07,.23,.1,.39,.16,.59,.2,.59,.39,1.2,.62,1.79,.2,.55,.62,.81,1.17,.85,.52,0,.91-.23,1.17-.75h0l.03-.03Z"/>
      <path class="cls-6" d="M41.07,25.51s-.29-.23-.46-.33c-.03,.07-.1,.13-.13,.16-.36,.49-1.04,.42-1.27-.16-.16-.46-.29-.91-.46-1.33-.07-.13-.16-.23-.26-.33-.16-.16-.36-.29-.59-.46,.07,.23,.1,.39,.16,.59,.2,.59,.39,1.2,.62,1.79,.2,.55,.62,.81,1.17,.85,.52,0,.91-.23,1.17-.75h0l.03-.03Z"/>
      <path class="cls-6" d="M43.42,26.58h-.52c-.07,.23-.07,.46-.2,.62-.23,.36-.65,.42-1.01,.2-.36-.26-.72-.52-1.11-.78-.13-.07-.29-.1-.42-.13h-.68c.23,.16,.46,.33,.68,.49,.46,.33,.88,.65,1.33,.94,.46,.29,.91,.26,1.37-.03s.62-.75,.59-1.33h0l-.03,.03Z"/>
      <path class="cls-6" d="M43.42,26.58h-.52c-.07,.23-.07,.46-.2,.62-.23,.36-.65,.42-1.01,.2-.36-.26-.72-.52-1.11-.78-.13-.07-.29-.1-.42-.13h-.68c.23,.16,.46,.33,.68,.49,.46,.33,.88,.65,1.33,.94,.46,.29,.91,.26,1.37-.03s.62-.75,.59-1.33h0l-.03,.03Z"/>
      <path class="cls-6" d="M44.3,18.22h.52c0-.1,0-.16,.03-.26,.1-.65,.68-.88,1.2-.52,.33,.23,.68,.46,1.01,.72,.16,.13,.33,.2,.52,.16,.2-.03,.42,0,.65,0-.26-.2-.49-.36-.72-.55-.42-.29-.85-.62-1.3-.91-.46-.29-.94-.23-1.37,.07s-.59,.75-.55,1.3h0Z"/>
      <path class="cls-6" d="M44.3,18.22h.52c0-.1,0-.16,.03-.26,.1-.65,.68-.88,1.2-.52,.33,.23,.68,.46,1.01,.72,.16,.13,.33,.2,.52,.16,.2-.03,.42,0,.65,0-.26-.2-.49-.36-.72-.55-.42-.29-.85-.62-1.3-.91-.46-.29-.94-.23-1.37,.07s-.59,.75-.55,1.3h0Z"/>
      <path class="cls-6" d="M41.4,16.79c-.72,.55-1.37,1.04-2.02,1.59-.39,.33-.49,.81-.36,1.33,.16,.52,.52,.85,1.07,.94,.07-.2,.1-.36,.16-.52-.13-.07-.29-.13-.42-.2-.39-.29-.39-.85,0-1.17,.36-.29,.72-.55,1.07-.85,.1-.1,.2-.26,.23-.39,.1-.2,.13-.42,.23-.72h0l.03-.03Z"/>
      <path class="cls-6" d="M41.4,16.79c-.72,.55-1.37,1.04-2.02,1.59-.39,.33-.49,.81-.36,1.33,.16,.52,.52,.85,1.07,.94,.07-.2,.1-.36,.16-.52-.13-.07-.29-.13-.42-.2-.39-.29-.39-.85,0-1.17,.36-.29,.72-.55,1.07-.85,.1-.1,.2-.26,.23-.39,.1-.2,.13-.42,.23-.72h0l.03-.03Z"/>
      <path class="cls-6" d="M39.84,23.23c-.07-.2-.13-.36-.16-.52-.16,0-.29,.07-.42,.07-.49,0-.85-.46-.72-.91,.13-.46,.26-.91,.39-1.37,.03-.13,0-.33,0-.46-.03-.23-.13-.42-.2-.65,0,.07-.07,.13-.1,.2-.23,.72-.46,1.43-.62,2.18-.13,.52,.03,1.01,.46,1.33s.88,.36,1.4,.13h-.03Z"/>
      <path class="cls-6" d="M39.84,23.23c-.07-.2-.13-.36-.16-.52-.16,0-.29,.07-.42,.07-.49,0-.85-.46-.72-.91,.13-.46,.26-.91,.39-1.37,.03-.13,0-.33,0-.46-.03-.23-.13-.42-.2-.65,0,.07-.07,.13-.1,.2-.23,.72-.46,1.43-.62,2.18-.13,.52,.03,1.01,.46,1.33s.88,.36,1.4,.13h-.03Z"/>
      <path class="cls-6" d="M47.84,21.57c.07,.2,.13,.36,.16,.49,.2,0,.39-.07,.55-.07,.39,.03,.68,.49,.59,.91-.13,.46-.26,.91-.39,1.37-.03,.16,0,.33,0,.49,.03,.2,.13,.39,.2,.65,.03-.1,.1-.16,.1-.23,.2-.68,.42-1.4,.62-2.08,.13-.52,0-.98-.39-1.33-.39-.36-.85-.42-1.33-.26-.07,0-.1,.03-.16,.1h0l.07-.03Z"/>
      <path class="cls-6" d="M47.84,21.57c.07,.2,.13,.36,.16,.49,.2,0,.39-.07,.55-.07,.39,.03,.68,.49,.59,.91-.13,.46-.26,.91-.39,1.37-.03,.16,0,.33,0,.49,.03,.2,.13,.39,.2,.65,.03-.1,.1-.16,.1-.23,.2-.68,.42-1.4,.62-2.08,.13-.52,0-.98-.39-1.33-.39-.36-.85-.42-1.33-.26-.07,0-.1,.03-.16,.1h0l.07-.03Z"/>
      <path class="cls-6" d="M47.58,24.14c-.07,.2-.1,.36-.16,.52,0,0,0,.07,.03,.07,.33,.07,.59,.26,.65,.62,.07,.36-.1,.62-.36,.81-.33,.23-.65,.49-.98,.75-.13,.1-.2,.26-.26,.42-.1,.2-.13,.39-.2,.62,.07-.03,.16-.07,.2-.13,.55-.42,1.14-.88,1.69-1.33,.46-.36,.59-.85,.46-1.37-.13-.55-.49-.88-1.07-.98h0Z"/>
      <path class="cls-6" d="M47.58,24.14c-.07,.2-.1,.36-.16,.52,0,0,0,.07,.03,.07,.33,.07,.59,.26,.65,.62,.07,.36-.1,.62-.36,.81-.33,.23-.65,.49-.98,.75-.13,.1-.2,.26-.26,.42-.1,.2-.13,.39-.2,.62,.07-.03,.16-.07,.2-.13,.55-.42,1.14-.88,1.69-1.33,.46-.36,.59-.85,.46-1.37-.13-.55-.49-.88-1.07-.98h0Z"/>
      <path class="cls-6" d="M45.86,26.03s-.29,.23-.42,.33c.1,.2,.2,.36,.23,.52,.1,.42-.23,.85-.68,.85s-.91,0-1.4,.03c-.13,0-.26,.1-.36,.16-.2,.13-.36,.26-.55,.42h.2c.75,0,1.5,0,2.25-.07,.55,0,.94-.36,1.11-.88,.16-.52,.07-.98-.33-1.4h0l-.03,.03Z"/>
      <path class="cls-6" d="M45.86,26.03s-.29,.23-.42,.33c.1,.2,.2,.36,.23,.52,.1,.42-.23,.85-.68,.85s-.91,0-1.4,.03c-.13,0-.26,.1-.36,.16-.2,.13-.36,.26-.55,.42h.2c.75,0,1.5,0,2.25-.07,.55,0,.94-.36,1.11-.88,.16-.52,.07-.98-.33-1.4h0l-.03,.03Z"/>
      <path class="cls-6" d="M44.98,16.4c-.78,0-1.59,0-2.41,.07-.52,0-.88,.39-1.04,.88-.16,.52-.07,.98,.33,1.4,.16-.13,.29-.23,.46-.36-.23-.26-.36-.55-.23-.91,.16-.36,.42-.46,.78-.46h.26c.68,0,1.43,.13,1.85-.62h0Z"/>
      <path class="cls-6" d="M44.98,16.4c-.78,0-1.59,0-2.41,.07-.52,0-.88,.39-1.04,.88-.16,.52-.07,.98,.33,1.4,.16-.13,.29-.23,.46-.36-.23-.26-.36-.55-.23-.91,.16-.36,.42-.46,.78-.46h.26c.68,0,1.43,.13,1.85-.62h0Z"/>
      <path class="cls-6" d="M42.15,27.23c.07-.2,.07-.39,.16-.55,.1-.26,.33-.36,.59-.39h1.04c.2,0,.36-.03,.42-.26,0-.1,.1-.2,.16-.29h-1.59c-.62,0-1.07,.36-1.27,.91-.13,.42,0,.62,.46,.62h0l.03-.03Z"/>
      <path class="cls-6" d="M42.15,27.23c.07-.2,.07-.39,.16-.55,.1-.26,.33-.36,.59-.39h1.04c.2,0,.36-.03,.42-.26,0-.1,.1-.2,.16-.29h-1.59c-.62,0-1.07,.36-1.27,.91-.13,.42,0,.62,.46,.62h0l.03-.03Z"/>
      <path class="cls-6" d="M43.19,19.07c.65,0,1.27,0,1.89-.07,.52-.07,.94-.59,.98-1.11,0-.23-.16-.36-.49-.39-.1,.23-.13,.49-.26,.68-.1,.13-.33,.23-.52,.26-.36,.03-.68,.03-1.04,0-.23,0-.36,.03-.42,.26,0,.1-.1,.2-.16,.29h0l.03,.07Z"/>
      <path class="cls-6" d="M43.19,19.07c.65,0,1.27,0,1.89-.07,.52-.07,.94-.59,.98-1.11,0-.23-.16-.36-.49-.39-.1,.23-.13,.49-.26,.68-.1,.13-.33,.23-.52,.26-.36,.03-.68,.03-1.04,0-.23,0-.36,.03-.42,.26,0,.1-.1,.2-.16,.29h0l.03,.07Z"/>
      <path class="cls-6" d="M39.74,25.35c.36-.55,.72-.62,1.24-.26,.33,.23,.65,.46,.94,.68,.2-.1,.36-.2,.59-.33-.55-.39-1.07-.78-1.63-1.07-.36-.2-.78-.13-1.17,.13-.42,.29-.42,.52,0,.88h0l.03-.03Z"/>
      <path class="cls-6" d="M39.74,25.35c.36-.55,.72-.62,1.24-.26,.33,.23,.65,.46,.94,.68,.2-.1,.36-.2,.59-.33-.55-.39-1.07-.78-1.63-1.07-.36-.2-.78-.13-1.17,.13-.42,.29-.42,.52,0,.88h0l.03-.03Z"/>
      <path class="cls-6" d="M41.43,20.14c.49-.39,1.01-.75,1.43-1.17,.36-.33,.46-.81,.29-1.3-.13-.42-.39-.52-.72-.26,.07,.23,.2,.42,.2,.65,0,.2-.13,.42-.26,.55-.23,.26-.52,.46-.81,.65-.2,.13-.26,.26-.2,.49,.03,.1,.03,.2,.07,.36h0v.03Z"/>
      <path class="cls-6" d="M41.43,20.14c.49-.39,1.01-.75,1.43-1.17,.36-.33,.46-.81,.29-1.3-.13-.42-.39-.52-.72-.26,.07,.23,.2,.42,.2,.65,0,.2-.13,.42-.26,.55-.23,.26-.52,.46-.81,.65-.2,.13-.26,.26-.2,.49,.03,.1,.03,.2,.07,.36h0v.03Z"/>
      <path class="cls-6" d="M45.27,27.3c-.39-.52-.33-.88,.2-1.3,.23-.16,.46-.36,.68-.52,.2-.13,.26-.26,.16-.49-.03-.1-.03-.2-.07-.39-.52,.42-1.04,.81-1.5,1.24-.33,.33-.36,.78-.26,1.24,.13,.49,.49,.42,.75,.16h0l.03,.07Z"/>
      <path class="cls-6" d="M45.27,27.3c-.39-.52-.33-.88,.2-1.3,.23-.16,.46-.36,.68-.52,.2-.13,.26-.26,.16-.49-.03-.1-.03-.2-.07-.39-.52,.42-1.04,.81-1.5,1.24-.33,.33-.36,.78-.26,1.24,.13,.49,.49,.42,.75,.16h0l.03,.07Z"/>
      <path class="cls-6" d="M45.14,19.33c.55,.36,1.04,.75,1.56,1.07,.39,.23,.81,.16,1.2-.07,.42-.26,.42-.55,0-.88-.39,.55-.72,.62-1.27,.23-.23-.16-.49-.33-.68-.49-.16-.13-.33-.16-.49,0-.07,.07-.2,.1-.36,.16h0l.03-.03Z"/>
      <path class="cls-6" d="M45.14,19.33c.55,.36,1.04,.75,1.56,1.07,.39,.23,.81,.16,1.2-.07,.42-.26,.42-.55,0-.88-.39,.55-.72,.62-1.27,.23-.23-.16-.49-.33-.68-.49-.16-.13-.33-.16-.49,0-.07,.07-.2,.1-.36,.16h0l.03-.03Z"/>
      <path class="cls-6" d="M40.62,22.06c.16-.65,.39-1.27,.49-1.89,.1-.46-.13-.88-.49-1.17s-.59-.2-.75,.29c.07,0,.16,.07,.23,.1,.36,.16,.55,.52,.42,.91-.1,.36-.2,.72-.29,1.04-.07,.16-.1,.33,.1,.46,.1,.07,.16,.16,.29,.29h0v-.03Z"/>
      <path class="cls-6" d="M40.62,22.06c.16-.65,.39-1.27,.49-1.89,.1-.46-.13-.88-.49-1.17s-.59-.2-.75,.29c.07,0,.16,.07,.23,.1,.36,.16,.55,.52,.42,.91-.1,.36-.2,.72-.29,1.04-.07,.16-.1,.33,.1,.46,.1,.07,.16,.16,.29,.29h0v-.03Z"/>
      <path class="cls-6" d="M47.81,25.51c-.62-.2-.78-.52-.62-1.14,.1-.29,.16-.59,.26-.88,.07-.16,.07-.29-.1-.42-.1-.07-.16-.16-.29-.29-.16,.52-.33,1.01-.42,1.5-.07,.29-.1,.62,0,.91,.07,.23,.26,.46,.42,.65,.29,.33,.62,.16,.75-.29h0v-.03Z"/>
      <path class="cls-6" d="M47.81,25.51c-.62-.2-.78-.52-.62-1.14,.1-.29,.16-.59,.26-.88,.07-.16,.07-.29-.1-.42-.1-.07-.16-.16-.29-.29-.16,.52-.33,1.01-.42,1.5-.07,.29-.1,.62,0,.91,.07,.23,.26,.46,.42,.65,.29,.33,.62,.16,.75-.29h0v-.03Z"/>
      <path class="cls-6" d="M46.67,20.73c.23,.62,.39,1.17,.62,1.72,.2,.49,.59,.72,1.11,.75,.46,.03,.62-.2,.49-.68-.07,0-.13,.03-.2,.07-.39,.1-.75-.07-.88-.49-.13-.33-.26-.68-.36-1.01-.07-.2-.13-.33-.36-.29-.1,0-.23-.03-.39-.1h0l-.03,.03Z"/>
      <path class="cls-6" d="M46.67,20.73c.23,.62,.39,1.17,.62,1.72,.2,.49,.59,.72,1.11,.75,.46,.03,.62-.2,.49-.68-.07,0-.13,.03-.2,.07-.39,.1-.75-.07-.88-.49-.13-.33-.26-.68-.36-1.01-.07-.2-.13-.33-.36-.29-.1,0-.23-.03-.39-.1h0l-.03,.03Z"/>
      <path class="cls-6" d="M38.83,22.26c.65-.2,.94-.03,1.17,.62,.07,.16,.13,.29,.16,.46,.1,.46,.29,.78,.85,.68-.23-.59-.39-1.24-.68-1.82-.2-.42-.59-.59-1.04-.62-.39,0-.59,.1-.46,.68h0Z"/>
      <path class="cls-6" d="M38.83,22.26c.65-.2,.94-.03,1.17,.62,.07,.16,.13,.29,.16,.46,.1,.46,.29,.78,.85,.68-.23-.59-.39-1.24-.68-1.82-.2-.42-.59-.59-1.04-.62-.39,0-.59,.1-.46,.68h0Z"/>
      <path class="cls-6" d="M43.58,25.41c-.42-.62-.23-1.53,.42-1.98,.1-.07,.2-.13,.33-.2,.78-.36,1.24-1.2,1.04-2.05-.16-.81-.91-1.43-1.76-1.46-.88,0-1.59,.59-1.82,1.5-.13,.55-.1,1.11,.1,1.69-.07-.07-.1-.13-.16-.23-.65-1.04-.29-2.41,.78-3.03s2.41-.23,2.99,.88c.13,.26,.23,.55,.29,.85,.07,.23,.23,.46,.36,.65,0,.07,.07,.1,.13,.16,.07,.1,.07,.16,0,.23-.07,.03-.1,.1-.16,.13,0,.03-.07,.1-.07,.13,.13,.16,0,.23-.1,.33,.1,.1,.13,.2,0,.33-.03,.07,0,.2,0,.26,.07,.26,0,.39-.26,.39-.29,0-.59,0-.88,.03-.68,.1-1.07,.52-1.2,1.2,0,.03,0,.1-.03,.13h0v.07Z"/>
      <path class="cls-6" d="M42.67,21.02s-.13-.1-.23-.13c-.26,.36-.36,1.07,.16,1.63-.1,.07-.16,.1-.26,.16-.52-.55-.59-1.53,0-2.18,.1,.07,.16,.1,.26,.16,.26,.16,.52,.33,.78,.49,0,0,.03,0,.03,.07v.78s0,.03-.03,.07c-.07,.03-.13,.1-.23,.13h-.03v-.85s0-.03-.03-.07c-.07-.03-.13-.1-.23-.13-.16,.29-.16,.55,0,.81-.07,.07-.16,.1-.26,.16-.2-.39-.2-.75,0-1.14h0l.07,.03Z"/>
      <path class="cls-6" d="M44.75,22.29s.07-.16,.1-.23c0-.1,.03-.2,.07-.26,0,0,0-.03,.03-.03h.26c0,.29-.16,.68-.39,.94-.16-.1-.36-.23-.52-.33-.16-.1-.36-.23-.52-.33,0,0-.03,0-.03-.07v-.81c.36-.23,.68-.42,1.04-.65h0c.23,.26,.36,.59,.39,.94h-.29c0-.2-.1-.39-.2-.55-.07,.03-.13,.07-.16,.1-.16,.1-.33,.2-.52,.33v.55c.23,.13,.46,.29,.68,.42h0l.07-.03Z"/>
      <path class="cls-6" d="M42.6,20.3s.16,.1,.26,.16c.23,.16,.49,.29,.72,.46h.07c.33-.2,.65-.39,.94-.59h0c-.59-.49-1.46-.42-2.02,0l.03-.03Zm.59,0c.29-.1,.55-.1,.85,0h0c-.13,.07-.26,.16-.39,.23h-.03c-.13-.07-.26-.16-.36-.23h-.07Z"/>
      <path class="cls-6" d="M42.6,20.3s.16,.1,.26,.16c.23,.16,.49,.29,.72,.46h.07c.33-.2,.65-.39,.94-.59h0c-.59-.49-1.46-.42-2.02,0l.03-.03Zm.59,0c.29-.1,.55-.1,.85,0h0c-.13,.07-.26,.16-.39,.23h-.03c-.13-.07-.26-.16-.36-.23h-.07Z"/>
      <path class="cls-6" d="M42.6,22.87c.59,.49,1.46,.42,2.02,0-.1-.07-.16-.1-.26-.16-.23-.13-.49-.29-.72-.42h-.07c-.33,.2-.65,.39-.94,.59h-.03Zm.55,0h0c.13-.07,.26-.16,.39-.23h.03c.13,.07,.26,.16,.36,.23h0c-.29,.1-.55,.1-.85,0h.07Z"/>
      <path class="cls-6" d="M42.6,22.87c.59,.49,1.46,.42,2.02,0-.1-.07-.16-.1-.26-.16-.23-.13-.49-.29-.72-.42h-.07c-.33,.2-.65,.39-.94,.59h-.03Zm.55,0h0c.13-.07,.26-.16,.39-.23h.03c.13,.07,.26,.16,.36,.23h0c-.29,.1-.55,.1-.85,0h.07Z"/>
      <path class="cls-4" d="M34.27,22.35v.07c0,5.27,4.26,9.57,9.53,9.6h.13c5.24-.03,9.5-4.26,9.53-9.53v-.07c0-5.27-4.26-9.57-9.53-9.6h-.07c-5.27,0-9.57,4.26-9.6,9.53Z"/>
      <path class="cls-4" d="M34.27,22.35v.07c0,5.27,4.26,9.57,9.53,9.6h.13c5.24-.03,9.5-4.26,9.53-9.53v-.07c0-5.27-4.26-9.57-9.53-9.6h-.07c-5.27,0-9.57,4.26-9.6,9.53Z"/>
    </g>
  </g>
</svg>