<?xml version="1.0" encoding="UTF-8"?>
<svg id="Layer_1" data-name="Layer 1" xmlns="http://www.w3.org/2000/svg" xmlns:xlink="http://www.w3.org/1999/xlink" viewBox="0 0 30 20">
  <defs>
    <style>
      .cls-1 {
        fill: url(#radial-gradient);
      }

      .cls-2 {
        fill: url(#radial-gradient-2);
      }

      .cls-3 {
        fill: none;
      }

      .cls-4 {
        fill: url(#linear-gradient);
      }

      .cls-5 {
        fill: #7a4217;
      }
    </style>
    <radialGradient id="radial-gradient" cx="15.31" cy="9.93" fx="15.31" fy="9.93" r="6.82" gradientUnits="userSpaceOnUse">
      <stop offset="0" stop-color="#ecb71a"/>
      <stop offset="0" stop-color="#dda517"/>
      <stop offset=".99" stop-color="#fdd649"/>
    </radialGradient>
    <radialGradient id="radial-gradient-2" cx="595.21" cy="7.66" fx="595.21" fy="7.66" r="2.45" gradientTransform="translate(609.85) rotate(-180) scale(1 -1)" gradientUnits="userSpaceOnUse">
      <stop offset="0" stop-color="#ecc440"/>
      <stop offset=".03" stop-color="#f5c230"/>
      <stop offset=".51" stop-color="#fffa8a"/>
      <stop offset=".71" stop-color="#ddac17"/>
      <stop offset="1" stop-color="#ffff95"/>
    </radialGradient>
    <linearGradient id="linear-gradient" x1="592.26" y1="7.66" x2="598.16" y2="7.66" gradientTransform="translate(609.85) rotate(-180) scale(1 -1)" gradientUnits="userSpaceOnUse">
      <stop offset="0" stop-color="#ecb71a"/>
      <stop offset="0" stop-color="#dda517"/>
      <stop offset=".46" stop-color="#b57a11"/>
      <stop offset=".99" stop-color="#fdd649"/>
    </linearGradient>
  </defs>
  <path class="cls-1" d="M14.61,17.42c-1.07-1.57-.6-3.8,1.04-4.97,.25-.18,.52-.33,.8-.46,1.96-.89,3.05-2.99,2.62-5.07-.43-2.07-2.25-3.57-4.37-3.62-2.16-.05-3.95,1.42-4.52,3.7-.35,1.39-.25,2.72,.25,4.22-.13-.18-.27-.36-.39-.54-1.6-2.6-.74-6,1.91-7.52,2.64-1.52,6.02-.54,7.46,2.16,.35,.66,.56,1.35,.72,2.08,.13,.59,.56,1.11,.86,1.66,.08,.14,.19,.26,.29,.39,.15,.21,.13,.4-.06,.57-.13,.11-.28,.21-.39,.34-.07,.08-.17,.26-.13,.3,.31,.4,.02,.6-.27,.83,.22,.26,.33,.49,.07,.82-.11,.14-.04,.47,.03,.68,.2,.66,.02,.95-.67,.97-.72,.03-1.46-.02-2.17,.1-1.67,.28-2.67,1.34-2.99,3.01-.02,.11-.05,.23-.08,.36Z"/>
  <path d="M18.27,9.01c.66-1.8-.12-3.87-1.83-4.77-1.74-.91-3.9-.39-4.99,1.19-.56,.82-.81,1.72-.68,2.7,.17,1.31,.85,2.3,2.01,2.97-.08,.17-.15,.32-.23,.47-.07,.15-.15,.29-.22,.43l-.09-.05c-.1-.05-.2-.08-.31-.08,0,0,0,0,0,0-.26,0-.52,.13-.65,.38l-1.14,2.17-.92,1.76c-.08,.16-.1,.34-.06,.5,0,0,0,0,0,0,.03,.23,.18,.42,.45,.55,.18,.09,.37,.19,.56,.28,.46,.22,.82,.09,1.05-.36,.49-.99,.98-1.98,1.47-2.96l.47-.9,.03-.06c.07-.13,.09-.26,.08-.4-.02-.23-.16-.44-.38-.56l-.2-.1c.16-.32,.3-.61,.45-.91,2.35,.88,4.48-.46,5.14-2.27Zm-5.61,3.62c.19,.1,.24,.25,.14,.44-.65,1.32-1.31,2.65-1.97,3.97-.04,.07-.1,.13-.17,.21-.1-.02-.19-.02-.27-.05-.2-.09-.4-.19-.6-.29-.27-.14-.31-.26-.18-.54,.52-1.06,1.05-2.11,1.57-3.17,.12-.24,.24-.48,.36-.72,.11-.22,.25-.27,.47-.16,.22,.1,.43,.2,.64,.31Zm-1.3-3.73c-.68-1.76,.23-3.8,2-4.48,1.82-.7,3.84,.2,4.54,2.03,.68,1.79-.22,3.79-2.02,4.48-1.82,.69-3.82-.2-4.52-2.02Z"/>
  <g>
    <path d="M8.02,3.5c-.11,0-.19-.09-.19-.19V1.31c0-.11,.09-.19,.19-.19h2.01c.11,0,.19,.09,.19,.19s-.09,.19-.19,.19h-1.82v1.81c0,.11-.09,.19-.19,.19Zm0-2.09v1.9s0-1.9,0-1.9Z"/>
    <path d="M21.98,3.5c-.11,0-.19-.09-.19-.19V1.5h-1.82c-.11,0-.19-.09-.19-.19s.09-.19,.19-.19h2.01c.11,0,.19,.09,.19,.19v2c0,.11-.09,.19-.19,.19Zm-2.01-2.19h2.01v2s0-2,0-2h-2.01Z"/>
    <path d="M10.02,18.88h-2.01c-.11,0-.19-.09-.19-.19v-2c0-.11,.09-.19,.19-.19s.19,.09,.19,.19v1.81h1.82c.11,0,.19,.09,.19,.19s-.09,.19-.19,.19Zm-2.01-2.19h0v2h0v-2Z"/>
    <path d="M21.98,18.88h-2.01c-.11,0-.19-.09-.19-.19s.09-.19,.19-.19h1.82v-1.81c0-.11,.09-.19,.19-.19s.19,.09,.19,.19v2c0,.11-.09,.19-.19,.19Zm-2.01-.19h0Zm2.01-2h0v1.9s0-1.9,0-1.9Z"/>
  </g>
  <g>
    <path class="cls-2" d="M14.66,5.21c1.35,0,2.45,1.11,2.44,2.47,0,1.35-1.11,2.45-2.47,2.44-1.35,0-2.45-1.11-2.44-2.47,0-1.35,1.11-2.45,2.47-2.44h0Z"/>
    <path class="cls-4" d="M11.7,7.65v.02c0,1.62,1.31,2.94,2.93,2.95,.01,0,.02,0,.04,0,1.61-.01,2.92-1.31,2.93-2.93,0,0,0-.01,0-.02,0-1.62-1.31-2.94-2.93-2.95,0,0-.01,0-.02,0-1.62,0-2.94,1.31-2.95,2.93Zm.5,0c0-1.35,1.11-2.45,2.47-2.44s2.45,1.11,2.44,2.47c0,1.35-1.11,2.45-2.47,2.44-1.35,0-2.45-1.11-2.44-2.47Z"/>
    <path class="cls-5" d="M15.49,6.71s.09,.07,.14,.1c.01-.02,.03-.04,.04-.05,.12-.15,.32-.12,.39,.06,.05,.14,.09,.28,.14,.41,.02,.04,.05,.07,.08,.1,.05,.05,.11,.09,.18,.14-.04-.13-.08-.24-.11-.35-.04-.13-.08-.26-.13-.39-.07-.17-.2-.25-.37-.25-.15,0-.28,.08-.35,.23h0Z"/>
    <path class="cls-5" d="M15.49,6.71s.09,.07,.14,.1c.01-.02,.03-.04,.04-.05,.12-.15,.32-.12,.39,.06,.05,.14,.09,.28,.14,.41,.02,.04,.05,.07,.08,.1,.05,.05,.11,.09,.18,.14-.04-.13-.08-.24-.11-.35-.04-.13-.08-.26-.13-.39-.07-.17-.2-.25-.37-.25-.15,0-.28,.08-.35,.23h0Z"/>
    <path class="cls-5" d="M13.79,8.62s-.09-.07-.14-.1c-.01,.02-.03,.04-.04,.05-.11,.15-.32,.13-.39-.05-.05-.14-.09-.28-.14-.41-.02-.04-.05-.07-.08-.1-.05-.05-.11-.09-.18-.14,.02,.07,.03,.12,.05,.18,.06,.18,.12,.37,.19,.55,.06,.17,.19,.25,.36,.26,.16,0,.28-.07,.36-.23h0Z"/>
    <path class="cls-5" d="M13.79,8.62s-.09-.07-.14-.1c-.01,.02-.03,.04-.04,.05-.11,.15-.32,.13-.39-.05-.05-.14-.09-.28-.14-.41-.02-.04-.05-.07-.08-.1-.05-.05-.11-.09-.18-.14,.02,.07,.03,.12,.05,.18,.06,.18,.12,.37,.19,.55,.06,.17,.19,.25,.36,.26,.16,0,.28-.07,.36-.23h0Z"/>
    <path class="cls-5" d="M14.51,8.95c-.06,0-.12,0-.16,0-.02,.07-.02,.14-.06,.19-.07,.11-.2,.13-.31,.06-.11-.08-.22-.16-.34-.24-.04-.02-.09-.03-.13-.04-.07,0-.14,0-.21,0,.07,.05,.14,.1,.21,.15,.14,.1,.27,.2,.41,.29,.14,.09,.28,.08,.42-.01,.14-.09,.19-.23,.18-.41h0Z"/>
    <path class="cls-5" d="M14.51,8.95c-.06,0-.12,0-.16,0-.02,.07-.02,.14-.06,.19-.07,.11-.2,.13-.31,.06-.11-.08-.22-.16-.34-.24-.04-.02-.09-.03-.13-.04-.07,0-.14,0-.21,0,.07,.05,.14,.1,.21,.15,.14,.1,.27,.2,.41,.29,.14,.09,.28,.08,.42-.01,.14-.09,.19-.23,.18-.41h0Z"/>
    <path class="cls-5" d="M14.78,6.38c.06,0,.11,0,.16,0,0-.03,0-.05,.01-.08,.03-.2,.21-.27,.37-.16,.1,.07,.21,.14,.31,.22,.05,.04,.1,.06,.16,.05,.06-.01,.13,0,.2,0-.08-.06-.15-.11-.22-.17-.13-.09-.26-.19-.4-.28-.14-.09-.29-.07-.42,.02-.13,.09-.18,.23-.17,.4h0Z"/>
    <path class="cls-5" d="M14.78,6.38c.06,0,.11,0,.16,0,0-.03,0-.05,.01-.08,.03-.2,.21-.27,.37-.16,.1,.07,.21,.14,.31,.22,.05,.04,.1,.06,.16,.05,.06-.01,.13,0,.2,0-.08-.06-.15-.11-.22-.17-.13-.09-.26-.19-.4-.28-.14-.09-.29-.07-.42,.02-.13,.09-.18,.23-.17,.4h0Z"/>
    <path class="cls-5" d="M13.89,5.94c-.22,.17-.42,.32-.62,.49-.12,.1-.15,.25-.11,.41,.05,.16,.16,.26,.33,.29,.02-.06,.03-.11,.05-.16-.04-.02-.09-.04-.13-.06-.12-.09-.12-.26,0-.36,.11-.09,.22-.17,.33-.26,.03-.03,.06-.08,.07-.12,.03-.06,.04-.13,.07-.22h0Z"/>
    <path class="cls-5" d="M13.89,5.94c-.22,.17-.42,.32-.62,.49-.12,.1-.15,.25-.11,.41,.05,.16,.16,.26,.33,.29,.02-.06,.03-.11,.05-.16-.04-.02-.09-.04-.13-.06-.12-.09-.12-.26,0-.36,.11-.09,.22-.17,.33-.26,.03-.03,.06-.08,.07-.12,.03-.06,.04-.13,.07-.22h0Z"/>
    <path class="cls-5" d="M13.41,7.92c-.02-.06-.04-.11-.05-.16-.05,0-.09,.02-.13,.02-.15,0-.26-.14-.22-.28,.04-.14,.08-.28,.12-.42,.01-.04,0-.1,0-.14-.01-.07-.04-.13-.06-.2,0,.02-.02,.04-.03,.06-.07,.22-.14,.44-.19,.67-.04,.16,.01,.31,.14,.41,.13,.1,.27,.11,.43,.04h0Z"/>
    <path class="cls-5" d="M13.41,7.92c-.02-.06-.04-.11-.05-.16-.05,0-.09,.02-.13,.02-.15,0-.26-.14-.22-.28,.04-.14,.08-.28,.12-.42,.01-.04,0-.1,0-.14-.01-.07-.04-.13-.06-.2,0,.02-.02,.04-.03,.06-.07,.22-.14,.44-.19,.67-.04,.16,.01,.31,.14,.41,.13,.1,.27,.11,.43,.04h0Z"/>
    <path class="cls-5" d="M15.87,7.41c.02,.06,.04,.11,.05,.15,.06,0,.12-.02,.17-.02,.12,.01,.21,.15,.18,.28-.04,.14-.08,.28-.12,.42-.01,.05,0,.1,0,.15,.01,.06,.04,.12,.06,.2,.01-.03,.03-.05,.03-.07,.06-.21,.13-.43,.19-.64,.04-.16,0-.3-.12-.41-.12-.11-.26-.13-.41-.08-.02,0-.03,.01-.05,.03h0Z"/>
    <path class="cls-5" d="M15.87,7.41c.02,.06,.04,.11,.05,.15,.06,0,.12-.02,.17-.02,.12,.01,.21,.15,.18,.28-.04,.14-.08,.28-.12,.42-.01,.05,0,.1,0,.15,.01,.06,.04,.12,.06,.2,.01-.03,.03-.05,.03-.07,.06-.21,.13-.43,.19-.64,.04-.16,0-.3-.12-.41-.12-.11-.26-.13-.41-.08-.02,0-.03,.01-.05,.03h0Z"/>
    <path class="cls-5" d="M15.79,8.2c-.02,.06-.03,.11-.05,.16,0,0,0,.02,.01,.02,.1,.02,.18,.08,.2,.19,.02,.11-.03,.19-.11,.25-.1,.07-.2,.15-.3,.23-.04,.03-.06,.08-.08,.13-.03,.06-.04,.12-.06,.19,.02-.01,.05-.02,.06-.04,.17-.13,.35-.27,.52-.41,.14-.11,.18-.26,.14-.42-.04-.17-.15-.27-.33-.3h0Z"/>
    <path class="cls-5" d="M15.79,8.2c-.02,.06-.03,.11-.05,.16,0,0,0,.02,.01,.02,.1,.02,.18,.08,.2,.19,.02,.11-.03,.19-.11,.25-.1,.07-.2,.15-.3,.23-.04,.03-.06,.08-.08,.13-.03,.06-.04,.12-.06,.19,.02-.01,.05-.02,.06-.04,.17-.13,.35-.27,.52-.41,.14-.11,.18-.26,.14-.42-.04-.17-.15-.27-.33-.3h0Z"/>
    <path class="cls-5" d="M15.26,8.78s-.09,.07-.13,.1c.03,.06,.06,.11,.07,.16,.03,.13-.07,.26-.21,.26-.14,0-.28,0-.43,.01-.04,0-.08,.03-.11,.05-.06,.04-.11,.08-.17,.13,.02,0,.04,0,.06,0,.23,0,.46,0,.69-.02,.17,0,.29-.11,.34-.27,.05-.16,.02-.3-.1-.43h0Z"/>
    <path class="cls-5" d="M15.26,8.78s-.09,.07-.13,.1c.03,.06,.06,.11,.07,.16,.03,.13-.07,.26-.21,.26-.14,0-.28,0-.43,.01-.04,0-.08,.03-.11,.05-.06,.04-.11,.08-.17,.13,.02,0,.04,0,.06,0,.23,0,.46,0,.69-.02,.17,0,.29-.11,.34-.27,.05-.16,.02-.3-.1-.43h0Z"/>
    <path class="cls-5" d="M14.99,5.82c-.24,0-.49,0-.74,.02-.16,0-.27,.12-.32,.27-.05,.16-.02,.3,.1,.43,.05-.04,.09-.07,.14-.11-.07-.08-.11-.17-.07-.28,.05-.11,.13-.14,.24-.14,.03,0,.05,0,.08,0,.21,0,.44,.04,.57-.19h0Z"/>
    <path class="cls-5" d="M14.99,5.82c-.24,0-.49,0-.74,.02-.16,0-.27,.12-.32,.27-.05,.16-.02,.3,.1,.43,.05-.04,.09-.07,.14-.11-.07-.08-.11-.17-.07-.28,.05-.11,.13-.14,.24-.14,.03,0,.05,0,.08,0,.21,0,.44,.04,.57-.19h0Z"/>
    <path class="cls-5" d="M14.12,9.15c.02-.06,.02-.12,.05-.17,.03-.08,.1-.11,.18-.12,.11,0,.21,0,.32,0,.06,0,.11-.01,.13-.08,0-.03,.03-.06,.05-.09-.02,0-.04,0-.06,0-.14,0-.28,0-.43,0-.19,0-.33,.11-.39,.28-.04,.13,0,.19,.14,.19h0Z"/>
    <path class="cls-5" d="M14.12,9.15c.02-.06,.02-.12,.05-.17,.03-.08,.1-.11,.18-.12,.11,0,.21,0,.32,0,.06,0,.11-.01,.13-.08,0-.03,.03-.06,.05-.09-.02,0-.04,0-.06,0-.14,0-.28,0-.43,0-.19,0-.33,.11-.39,.28-.04,.13,0,.19,.14,.19h0Z"/>
    <path class="cls-5" d="M14.44,6.64c.2,0,.39,0,.58-.02,.16-.02,.29-.18,.3-.34,0-.07-.05-.11-.15-.12-.03,.07-.04,.15-.08,.21-.03,.04-.1,.07-.16,.08-.11,.01-.21,.01-.32,0-.07,0-.11,.01-.13,.08,0,.03-.03,.06-.05,.09h0Z"/>
    <path class="cls-5" d="M14.44,6.64c.2,0,.39,0,.58-.02,.16-.02,.29-.18,.3-.34,0-.07-.05-.11-.15-.12-.03,.07-.04,.15-.08,.21-.03,.04-.1,.07-.16,.08-.11,.01-.21,.01-.32,0-.07,0-.11,.01-.13,.08,0,.03-.03,.06-.05,.09h0Z"/>
    <path class="cls-5" d="M13.38,8.57c.11-.17,.22-.19,.38-.08,.1,.07,.2,.14,.29,.21,.06-.03,.11-.06,.18-.1-.17-.12-.33-.24-.5-.33-.11-.06-.24-.04-.36,.04-.13,.09-.13,.16,0,.27h0Z"/>
    <path class="cls-5" d="M13.38,8.57c.11-.17,.22-.19,.38-.08,.1,.07,.2,.14,.29,.21,.06-.03,.11-.06,.18-.1-.17-.12-.33-.24-.5-.33-.11-.06-.24-.04-.36,.04-.13,.09-.13,.16,0,.27h0Z"/>
    <path class="cls-5" d="M13.9,6.97c.15-.12,.31-.23,.44-.36,.11-.1,.14-.25,.09-.4-.04-.13-.12-.16-.22-.08,.02,.07,.06,.13,.06,.2,0,.06-.04,.13-.08,.17-.07,.08-.16,.14-.25,.2-.06,.04-.08,.08-.06,.15,.01,.03,.01,.06,.02,.11h0Z"/>
    <path class="cls-5" d="M13.9,6.97c.15-.12,.31-.23,.44-.36,.11-.1,.14-.25,.09-.4-.04-.13-.12-.16-.22-.08,.02,.07,.06,.13,.06,.2,0,.06-.04,.13-.08,.17-.07,.08-.16,.14-.25,.2-.06,.04-.08,.08-.06,.15,.01,.03,.01,.06,.02,.11h0Z"/>
    <path class="cls-5" d="M15.08,9.17c-.12-.16-.1-.27,.06-.4,.07-.05,.14-.11,.21-.16,.06-.04,.08-.08,.05-.15-.01-.03-.01-.06-.02-.12-.16,.13-.32,.25-.46,.38-.1,.1-.11,.24-.08,.38,.04,.15,.15,.13,.23,.05h0Z"/>
    <path class="cls-5" d="M15.08,9.17c-.12-.16-.1-.27,.06-.4,.07-.05,.14-.11,.21-.16,.06-.04,.08-.08,.05-.15-.01-.03-.01-.06-.02-.12-.16,.13-.32,.25-.46,.38-.1,.1-.11,.24-.08,.38,.04,.15,.15,.13,.23,.05h0Z"/>
    <path class="cls-5" d="M15.04,6.72c.17,.11,.32,.23,.48,.33,.12,.07,.25,.05,.37-.02,.13-.08,.13-.17,0-.27-.12,.17-.22,.19-.39,.07-.07-.05-.15-.1-.21-.15-.05-.04-.1-.05-.15,0-.02,.02-.06,.03-.11,.05h0Z"/>
    <path class="cls-5" d="M15.04,6.72c.17,.11,.32,.23,.48,.33,.12,.07,.25,.05,.37-.02,.13-.08,.13-.17,0-.27-.12,.17-.22,.19-.39,.07-.07-.05-.15-.1-.21-.15-.05-.04-.1-.05-.15,0-.02,.02-.06,.03-.11,.05h0Z"/>
    <path class="cls-5" d="M13.65,7.56c.05-.2,.12-.39,.15-.58,.03-.14-.04-.27-.15-.36-.11-.09-.18-.06-.23,.09,.02,0,.05,.02,.07,.03,.11,.05,.17,.16,.13,.28-.03,.11-.06,.22-.09,.32-.02,.05-.03,.1,.03,.14,.03,.02,.05,.05,.09,.09h0Z"/>
    <path class="cls-5" d="M13.65,7.56c.05-.2,.12-.39,.15-.58,.03-.14-.04-.27-.15-.36-.11-.09-.18-.06-.23,.09,.02,0,.05,.02,.07,.03,.11,.05,.17,.16,.13,.28-.03,.11-.06,.22-.09,.32-.02,.05-.03,.1,.03,.14,.03,.02,.05,.05,.09,.09h0Z"/>
    <path class="cls-5" d="M15.86,8.62c-.19-.06-.24-.16-.19-.35,.03-.09,.05-.18,.08-.27,.02-.05,.02-.09-.03-.13-.03-.02-.05-.05-.09-.09-.05,.16-.1,.31-.13,.46-.02,.09-.03,.19,0,.28,.02,.07,.08,.14,.13,.2,.09,.1,.19,.05,.23-.09h0Z"/>
    <path class="cls-5" d="M15.86,8.62c-.19-.06-.24-.16-.19-.35,.03-.09,.05-.18,.08-.27,.02-.05,.02-.09-.03-.13-.03-.02-.05-.05-.09-.09-.05,.16-.1,.31-.13,.46-.02,.09-.03,.19,0,.28,.02,.07,.08,.14,.13,.2,.09,.1,.19,.05,.23-.09h0Z"/>
    <path class="cls-5" d="M15.51,7.15c.07,.19,.12,.36,.19,.53,.06,.15,.18,.22,.34,.23,.14,.01,.19-.06,.15-.21-.02,0-.04,.01-.06,.02-.12,.03-.23-.02-.27-.15-.04-.1-.08-.21-.11-.31-.02-.06-.04-.1-.11-.09-.03,0-.07-.01-.12-.03h0Z"/>
    <path class="cls-5" d="M15.51,7.15c.07,.19,.12,.36,.19,.53,.06,.15,.18,.22,.34,.23,.14,.01,.19-.06,.15-.21-.02,0-.04,.01-.06,.02-.12,.03-.23-.02-.27-.15-.04-.1-.08-.21-.11-.31-.02-.06-.04-.1-.11-.09-.03,0-.07-.01-.12-.03h0Z"/>
    <path class="cls-5" d="M13.1,7.62c.2-.06,.29-.01,.36,.19,.02,.05,.04,.09,.05,.14,.03,.14,.09,.24,.26,.21-.07-.18-.12-.38-.21-.56-.06-.13-.18-.18-.32-.19-.12,0-.18,.03-.14,.21h0Z"/>
    <path class="cls-5" d="M13.1,7.62c.2-.06,.29-.01,.36,.19,.02,.05,.04,.09,.05,.14,.03,.14,.09,.24,.26,.21-.07-.18-.12-.38-.21-.56-.06-.13-.18-.18-.32-.19-.12,0-.18,.03-.14,.21h0Z"/>
    <path class="cls-5" d="M14.56,8.59c-.13-.19-.07-.47,.13-.61,.03-.02,.06-.04,.1-.06,.24-.11,.38-.37,.32-.63-.05-.25-.28-.44-.54-.45-.27,0-.49,.18-.56,.46-.04,.17-.03,.34,.03,.52-.02-.02-.03-.04-.05-.07-.2-.32-.09-.74,.24-.93,.33-.19,.74-.07,.92,.27,.04,.08,.07,.17,.09,.26,.02,.07,.07,.14,.11,.2,0,.02,.02,.03,.04,.05,.02,.03,.02,.05,0,.07-.02,.01-.03,.03-.05,.04,0,.01-.02,.03-.02,.04,.04,.05,0,.07-.03,.1,.03,.03,.04,.06,0,.1-.01,.02,0,.06,0,.08,.02,.08,0,.12-.08,.12-.09,0-.18,0-.27,.01-.21,.03-.33,.16-.37,.37,0,.01,0,.03-.01,.04h0Z"/>
    <path class="cls-5" d="M14.28,7.24s-.04-.03-.07-.04c-.08,.11-.11,.33,.05,.5-.03,.02-.05,.03-.08,.05-.16-.17-.18-.47,0-.67,.03,.02,.05,.03,.08,.05,.08,.05,.16,.1,.24,.15,0,0,.01,0,.01,.02,0,.08,0,.16,0,.24,0,0,0,.01-.01,.02-.02,.01-.04,.03-.07,.04,0,0,0,0-.01,0v-.02c0-.08,0-.16,0-.24,0,0,0-.01-.01-.02-.02-.01-.04-.03-.07-.04-.05,.09-.05,.17,0,.25-.02,.02-.05,.03-.08,.05-.06-.12-.06-.23,0-.35h0Z"/>
    <path class="cls-5" d="M14.92,7.63s.02-.05,.03-.07c0-.03,.01-.06,.02-.08,0,0,0-.01,.01-.01,.03,0,.05,0,.08,0,0,.09-.05,.21-.12,.29-.05-.03-.11-.07-.16-.1-.05-.03-.11-.07-.16-.1,0,0-.01,0-.01-.02,0-.08,0-.16,0-.24,0,0,0-.01,0-.01,.11-.07,.21-.13,.32-.2,0,0,0,0,0,0,.07,.08,.11,.18,.12,.29h-.09c0-.06-.03-.12-.06-.17-.02,.01-.04,.02-.05,.03-.05,.03-.1,.06-.16,.1,0,0,0,0,0,.02,0,.05,0,.09,0,.14,0,0,0,.01,0,.01,.07,.04,.14,.09,.21,.13,0,0,0,0,0,0h0Z"/>
    <path class="cls-5" d="M14.26,7.02s.05,.03,.08,.05c.07,.05,.15,.09,.22,.14,0,0,.01,0,.02,0,.1-.06,.2-.12,.29-.18,0,0,0,0,0,0-.18-.15-.45-.13-.62,0Zm.18,0c.09-.03,.17-.03,.26,0,0,0,0,0,0,0-.04,.02-.08,.05-.12,.07,0,0-.01,0-.01,0-.04-.02-.08-.05-.11-.07,0,0,0,0,0,0Z"/>
    <path class="cls-5" d="M14.26,7.02s.05,.03,.08,.05c.07,.05,.15,.09,.22,.14,0,0,.01,0,.02,0,.1-.06,.2-.12,.29-.18,0,0,0,0,0,0-.18-.15-.45-.13-.62,0Zm.18,0c.09-.03,.17-.03,.26,0,0,0,0,0,0,0-.04,.02-.08,.05-.12,.07,0,0-.01,0-.01,0-.04-.02-.08-.05-.11-.07,0,0,0,0,0,0Z"/>
    <path class="cls-5" d="M14.26,7.81c.18,.15,.45,.13,.62,0-.03-.02-.05-.03-.08-.05-.07-.04-.15-.09-.22-.13,0,0-.01,0-.02,0-.1,.06-.2,.12-.29,.18,0,0,0,0,0,0Zm.17,0s0,0,0,0c.04-.02,.08-.05,.12-.07,0,0,.01,0,.01,0,.04,.02,.08,.05,.11,.07,0,0,0,0,0,0-.09,.03-.17,.03-.26,0Z"/>
    <path class="cls-5" d="M14.26,7.81c.18,.15,.45,.13,.62,0-.03-.02-.05-.03-.08-.05-.07-.04-.15-.09-.22-.13,0,0-.01,0-.02,0-.1,.06-.2,.12-.29,.18,0,0,0,0,0,0Zm.17,0s0,0,0,0c.04-.02,.08-.05,.12-.07,0,0,.01,0,.01,0,.04,.02,.08,.05,.11,.07,0,0,0,0,0,0-.09,.03-.17,.03-.26,0Z"/>
    <path class="cls-3" d="M11.7,7.65v.02c0,1.62,1.31,2.94,2.93,2.95h.04c1.61-.01,2.92-1.31,2.93-2.93,0,0,0-.01,0-.02,0-1.62-1.31-2.94-2.93-2.95,0,0-.01,0-.02,0-1.62,0-2.94,1.31-2.95,2.93Z"/>
    <path class="cls-3" d="M11.7,7.65v.02c0,1.62,1.31,2.94,2.93,2.95h.04c1.61-.01,2.92-1.31,2.93-2.93,0,0,0-.01,0-.02,0-1.62-1.31-2.94-2.93-2.95,0,0-.01,0-.02,0-1.62,0-2.94,1.31-2.95,2.93Z"/>
  </g>
</svg>
