<?xml version="1.0" encoding="UTF-8"?>
<svg id="Layer_1" data-name="Layer 1" xmlns="http://www.w3.org/2000/svg" xmlns:xlink="http://www.w3.org/1999/xlink" viewBox="0 0 85 20">
  <defs>
    <style>
      .cls-1 {
        fill: url(#radial-gradient);
      }

      .cls-2 {
        fill: url(#radial-gradient-2);
      }

      .cls-3 {
        fill: none;
      }

      .cls-4 {
        fill: url(#linear-gradient);
      }

      .cls-5 {
        fill: #7a4217;
      }
    </style>
    <radialGradient id="radial-gradient" cx="8.85" cy="9.92" fx="8.85" fy="9.92" r="7.27" gradientUnits="userSpaceOnUse">
      <stop offset="0" stop-color="#ecb71a"/>
      <stop offset="0" stop-color="#dda517"/>
      <stop offset=".99" stop-color="#fdd649"/>
    </radialGradient>
    <radialGradient id="radial-gradient-2" cx="655.71" cy="7.51" fx="655.71" fy="7.51" r="2.61" gradientTransform="translate(663.85) rotate(-180) scale(1 -1)" gradientUnits="userSpaceOnUse">
      <stop offset="0" stop-color="#ecc440"/>
      <stop offset=".03" stop-color="#f5c230"/>
      <stop offset=".51" stop-color="#fffa8a"/>
      <stop offset=".71" stop-color="#ddac17"/>
      <stop offset="1" stop-color="#ffff95"/>
    </radialGradient>
    <linearGradient id="linear-gradient" x1="652.57" y1="7.51" x2="658.85" y2="7.51" gradientTransform="translate(663.85) rotate(-180) scale(1 -1)" gradientUnits="userSpaceOnUse">
      <stop offset="0" stop-color="#ecb71a"/>
      <stop offset="0" stop-color="#dda517"/>
      <stop offset=".46" stop-color="#b57a11"/>
      <stop offset=".99" stop-color="#fdd649"/>
    </linearGradient>
  </defs>
  <g>
    <path class="cls-1" d="M8.1,17.91c-1.14-1.67-.64-4.05,1.11-5.3,.27-.19,.56-.35,.86-.49,2.09-.95,3.25-3.18,2.79-5.4-.46-2.2-2.39-3.81-4.66-3.85-2.3-.05-4.21,1.51-4.82,3.94-.37,1.48-.27,2.9,.27,4.5-.14-.19-.29-.38-.41-.58-1.71-2.77-.79-6.4,2.03-8.02,2.81-1.62,6.42-.57,7.95,2.3,.37,.7,.59,1.44,.77,2.21,.14,.63,.59,1.19,.92,1.77,.08,.15,.21,.27,.31,.41,.16,.22,.14,.43-.07,.61-.14,.12-.3,.23-.42,.37-.08,.09-.18,.28-.14,.32,.33,.43,.02,.64-.29,.88,.23,.28,.35,.52,.08,.87-.12,.15-.04,.5,.03,.73,.22,.7,.02,1.01-.72,1.04-.77,.03-1.56-.02-2.31,.11-1.78,.3-2.85,1.42-3.18,3.21-.02,.12-.06,.24-.09,.38Z"/>
    <path d="M12.01,8.94c.71-1.92-.13-4.13-1.95-5.09-1.85-.97-4.16-.42-5.32,1.27-.6,.87-.87,1.83-.73,2.88,.18,1.4,.91,2.46,2.14,3.17-.09,.18-.16,.34-.24,.5-.08,.16-.16,.31-.24,.46l-.1-.05c-.11-.05-.22-.08-.33-.09,0,0,0,0,0,0-.28,0-.55,.14-.69,.4l-1.21,2.32-.98,1.88c-.09,.17-.11,.36-.06,.53,0,0,0,0,0,0,.03,.24,.19,.44,.48,.58,.2,.1,.39,.2,.59,.29,.49,.23,.88,.1,1.12-.38,.52-1.05,1.05-2.11,1.57-3.16l.5-.96,.03-.06c.07-.13,.1-.28,.08-.42-.02-.25-.17-.47-.4-.6l-.21-.11c.17-.34,.32-.65,.48-.97,2.5,.94,4.77-.49,5.48-2.42Zm-5.99,3.85c.2,.11,.26,.26,.15,.47-.7,1.41-1.4,2.82-2.1,4.23-.04,.08-.11,.13-.18,.22-.1-.02-.2-.02-.28-.06-.22-.09-.43-.2-.64-.31-.29-.14-.33-.28-.19-.57,.56-1.13,1.11-2.25,1.67-3.38,.13-.26,.25-.51,.38-.77,.12-.23,.27-.28,.5-.18,.23,.11,.46,.22,.68,.33Zm-1.39-3.97c-.72-1.88,.25-4.05,2.13-4.78,1.94-.75,4.09,.21,4.84,2.16,.73,1.91-.23,4.04-2.15,4.78-1.94,.74-4.07-.22-4.81-2.16Z"/>
    <g>
      <path d="M1.08,3.07c-.11,0-.2-.09-.2-.2V.73c0-.11,.09-.2,.2-.2H3.22c.11,0,.2,.09,.2,.2s-.09,.2-.2,.2H1.28v1.93c0,.11-.09,.2-.2,.2ZM1.08,.83V2.86S1.08,.83,1.08,.83Z"/>
      <path d="M15.97,3.07c-.11,0-.2-.09-.2-.2V.94h-1.94c-.11,0-.2-.09-.2-.2s.09-.2,.2-.2h2.14c.11,0,.2,.09,.2,.2V2.86c0,.11-.09,.2-.2,.2ZM13.83,.73h2.14V2.86s0-2.13,0-2.13h-2.14Z"/>
      <path d="M3.22,19.47H1.08c-.11,0-.2-.09-.2-.2v-2.13c0-.11,.09-.2,.2-.2s.2,.09,.2,.2v1.93h1.94c.11,0,.2,.09,.2,.2s-.09,.2-.2,.2Zm-2.14-2.33h0v2.13h0v-2.13Z"/>
      <path d="M15.97,19.47h-2.14c-.11,0-.2-.09-.2-.2s.09-.2,.2-.2h1.94v-1.93c0-.11,.09-.2,.2-.2s.2,.09,.2,.2v2.13c0,.11-.09,.2-.2,.2Zm-2.14-.2h0Zm2.14-2.13h0v2.03s0-2.03,0-2.03Z"/>
    </g>
    <g>
      <path class="cls-2" d="M8.16,4.9c1.44,0,2.61,1.19,2.6,2.63,0,1.44-1.19,2.61-2.63,2.6-1.44,0-2.61-1.19-2.6-2.63,0-1.44,1.19-2.61,2.63-2.6h0Z"/>
      <path class="cls-4" d="M5,7.49v.02c0,1.73,1.39,3.13,3.12,3.14,.01,0,.03,0,.04,0,1.72-.01,3.11-1.4,3.12-3.12,0,0,0-.01,0-.02,0-1.73-1.39-3.13-3.12-3.14,0,0-.01,0-.02,0-1.73,0-3.13,1.39-3.14,3.12Zm.53,0c0-1.44,1.19-2.61,2.63-2.6s2.61,1.19,2.6,2.63c0,1.44-1.19,2.61-2.63,2.6-1.44,0-2.61-1.19-2.6-2.63Z"/>
      <path class="cls-5" d="M9.04,6.49s.1,.07,.15,.11c.02-.02,.03-.04,.04-.06,.12-.16,.34-.13,.42,.06,.06,.14,.1,.29,.15,.44,.02,.04,.05,.08,.09,.11,.06,.05,.12,.09,.19,.15-.04-.13-.08-.25-.12-.37-.05-.14-.09-.28-.14-.41-.07-.18-.21-.27-.39-.27-.16,0-.29,.08-.38,.24h0Z"/>
      <path class="cls-5" d="M9.04,6.49s.1,.07,.15,.11c.02-.02,.03-.04,.04-.06,.12-.16,.34-.13,.42,.06,.06,.14,.1,.29,.15,.44,.02,.04,.05,.08,.09,.11,.06,.05,.12,.09,.19,.15-.04-.13-.08-.25-.12-.37-.05-.14-.09-.28-.14-.41-.07-.18-.21-.27-.39-.27-.16,0-.29,.08-.38,.24h0Z"/>
      <path class="cls-5" d="M7.24,8.53s-.1-.07-.15-.11c-.02,.02-.03,.04-.04,.05-.12,.16-.34,.13-.42-.06-.06-.14-.1-.29-.15-.44-.02-.04-.05-.08-.09-.11-.06-.05-.12-.09-.19-.15,.02,.07,.04,.13,.06,.19,.07,.19,.13,.39,.2,.58,.07,.18,.2,.27,.39,.27,.17,0,.3-.08,.39-.24h0Z"/>
      <path class="cls-5" d="M7.24,8.53s-.1-.07-.15-.11c-.02,.02-.03,.04-.04,.05-.12,.16-.34,.13-.42-.06-.06-.14-.1-.29-.15-.44-.02-.04-.05-.08-.09-.11-.06-.05-.12-.09-.19-.15,.02,.07,.04,.13,.06,.19,.07,.19,.13,.39,.2,.58,.07,.18,.2,.27,.39,.27,.17,0,.3-.08,.39-.24h0Z"/>
      <path class="cls-5" d="M8,8.88c-.07,0-.13,0-.17,0-.02,.08-.03,.15-.06,.2-.07,.12-.21,.14-.33,.06-.12-.08-.24-.17-.36-.25-.04-.03-.09-.04-.14-.04-.07,0-.15,0-.23,0,.07,.05,.15,.11,.22,.16,.14,.1,.29,.21,.44,.31,.15,.09,.3,.08,.45-.01,.15-.1,.2-.25,.19-.43h0Z"/>
      <path class="cls-5" d="M8,8.88c-.07,0-.13,0-.17,0-.02,.08-.03,.15-.06,.2-.07,.12-.21,.14-.33,.06-.12-.08-.24-.17-.36-.25-.04-.03-.09-.04-.14-.04-.07,0-.15,0-.23,0,.07,.05,.15,.11,.22,.16,.14,.1,.29,.21,.44,.31,.15,.09,.3,.08,.45-.01,.15-.1,.2-.25,.19-.43h0Z"/>
      <path class="cls-5" d="M8.28,6.14c.06,0,.11,0,.17,0,0-.03,.01-.06,.01-.09,.04-.21,.22-.29,.4-.17,.11,.08,.22,.15,.33,.23,.05,.04,.1,.06,.17,.05,.07-.01,.13,0,.21,0-.08-.06-.16-.12-.24-.18-.14-.1-.28-.2-.42-.3-.15-.09-.3-.08-.45,.02-.14,.1-.2,.25-.18,.43h0Z"/>
      <path class="cls-5" d="M8.28,6.14c.06,0,.11,0,.17,0,0-.03,.01-.06,.01-.09,.04-.21,.22-.29,.4-.17,.11,.08,.22,.15,.33,.23,.05,.04,.1,.06,.17,.05,.07-.01,.13,0,.21,0-.08-.06-.16-.12-.24-.18-.14-.1-.28-.2-.42-.3-.15-.09-.3-.08-.45,.02-.14,.1-.2,.25-.18,.43h0Z"/>
      <path class="cls-5" d="M7.34,5.67c-.23,.18-.45,.35-.66,.52-.13,.11-.16,.27-.11,.44,.05,.17,.17,.28,.35,.31,.02-.06,.03-.12,.05-.17-.05-.02-.1-.04-.13-.07-.13-.1-.13-.28,0-.39,.12-.1,.24-.18,.35-.28,.04-.03,.06-.08,.08-.13,.03-.07,.05-.14,.08-.23h0Z"/>
      <path class="cls-5" d="M7.34,5.67c-.23,.18-.45,.35-.66,.52-.13,.11-.16,.27-.11,.44,.05,.17,.17,.28,.35,.31,.02-.06,.03-.12,.05-.17-.05-.02-.1-.04-.13-.07-.13-.1-.13-.28,0-.39,.12-.1,.24-.18,.35-.28,.04-.03,.06-.08,.08-.13,.03-.07,.05-.14,.08-.23h0Z"/>
      <path class="cls-5" d="M6.83,7.79c-.02-.06-.04-.12-.06-.17-.05,0-.1,.02-.14,.02-.16,0-.27-.15-.23-.3,.04-.15,.09-.3,.13-.45,.01-.05,0-.1,0-.15-.02-.07-.04-.14-.06-.21,0,.02-.02,.04-.03,.06-.07,.24-.15,.47-.21,.71-.04,.17,.01,.33,.15,.44,.14,.11,.29,.12,.46,.05h0Z"/>
      <path class="cls-5" d="M6.83,7.79c-.02-.06-.04-.12-.06-.17-.05,0-.1,.02-.14,.02-.16,0-.27-.15-.23-.3,.04-.15,.09-.3,.13-.45,.01-.05,0-.1,0-.15-.02-.07-.04-.14-.06-.21,0,.02-.02,.04-.03,.06-.07,.24-.15,.47-.21,.71-.04,.17,.01,.33,.15,.44,.14,.11,.29,.12,.46,.05h0Z"/>
      <path class="cls-5" d="M9.45,7.23c.02,.06,.04,.11,.06,.16,.07,0,.13-.02,.18-.02,.13,.01,.23,.16,.19,.29-.04,.15-.09,.3-.13,.45-.01,.05,0,.11,0,.16,.01,.07,.04,.13,.06,.21,.01-.03,.03-.05,.04-.08,.07-.23,.14-.45,.2-.68,.04-.17,0-.32-.13-.43-.12-.12-.27-.14-.43-.09-.02,0-.03,.02-.05,.03h0Z"/>
      <path class="cls-5" d="M9.45,7.23c.02,.06,.04,.11,.06,.16,.07,0,.13-.02,.18-.02,.13,.01,.23,.16,.19,.29-.04,.15-.09,.3-.13,.45-.01,.05,0,.11,0,.16,.01,.07,.04,.13,.06,.21,.01-.03,.03-.05,.04-.08,.07-.23,.14-.45,.2-.68,.04-.17,0-.32-.13-.43-.12-.12-.27-.14-.43-.09-.02,0-.03,.02-.05,.03h0Z"/>
      <path class="cls-5" d="M9.36,8.08c-.02,.06-.03,.12-.05,.17,0,0,0,.02,.01,.02,.11,.02,.19,.09,.21,.2,.02,.12-.03,.2-.12,.27-.11,.08-.22,.16-.32,.25-.04,.03-.06,.09-.08,.14-.03,.06-.04,.13-.07,.2,.02-.01,.05-.02,.07-.04,.18-.14,.37-.29,.55-.43,.14-.12,.19-.28,.15-.45-.04-.18-.16-.29-.35-.32h0Z"/>
      <path class="cls-5" d="M9.36,8.08c-.02,.06-.03,.12-.05,.17,0,0,0,.02,.01,.02,.11,.02,.19,.09,.21,.2,.02,.12-.03,.2-.12,.27-.11,.08-.22,.16-.32,.25-.04,.03-.06,.09-.08,.14-.03,.06-.04,.13-.07,.2,.02-.01,.05-.02,.07-.04,.18-.14,.37-.29,.55-.43,.14-.12,.19-.28,.15-.45-.04-.18-.16-.29-.35-.32h0Z"/>
      <path class="cls-5" d="M8.8,8.7c-.05,.04-.1,.07-.14,.11,.03,.06,.06,.11,.08,.17,.03,.14-.08,.28-.23,.28-.15,0-.3,0-.45,.01-.04,0-.08,.03-.12,.05-.06,.04-.12,.09-.19,.14,.02,0,.04,0,.06,0,.24,0,.49,0,.73-.02,.18,0,.3-.12,.36-.29,.06-.17,.02-.32-.11-.46h0Z"/>
      <path class="cls-5" d="M8.8,8.7c-.05,.04-.1,.07-.14,.11,.03,.06,.06,.11,.08,.17,.03,.14-.08,.28-.23,.28-.15,0-.3,0-.45,.01-.04,0-.08,.03-.12,.05-.06,.04-.12,.09-.19,.14,.02,0,.04,0,.06,0,.24,0,.49,0,.73-.02,.18,0,.3-.12,.36-.29,.06-.17,.02-.32-.11-.46h0Z"/>
      <path class="cls-5" d="M8.51,5.55c-.26,0-.52,0-.79,.02-.17,.01-.29,.12-.34,.29-.06,.17-.02,.32,.11,.45,.05-.04,.1-.08,.15-.12-.08-.09-.12-.18-.07-.3,.05-.11,.14-.15,.26-.15,.03,0,.06,0,.08,0,.22,0,.46,.04,.61-.2h0Z"/>
      <path class="cls-5" d="M8.51,5.55c-.26,0-.52,0-.79,.02-.17,.01-.29,.12-.34,.29-.06,.17-.02,.32,.11,.45,.05-.04,.1-.08,.15-.12-.08-.09-.12-.18-.07-.3,.05-.11,.14-.15,.26-.15,.03,0,.06,0,.08,0,.22,0,.46,.04,.61-.2h0Z"/>
      <path class="cls-5" d="M7.58,9.1c.02-.06,.03-.12,.05-.18,.04-.08,.11-.12,.19-.12,.11,0,.23,0,.34,0,.07,0,.12-.01,.14-.09,0-.03,.03-.06,.05-.1-.02,0-.04,0-.06,0-.15,0-.3,0-.45,0-.2,0-.35,.12-.41,.3-.04,.14,0,.2,.15,.2h0Z"/>
      <path class="cls-5" d="M7.58,9.1c.02-.06,.03-.12,.05-.18,.04-.08,.11-.12,.19-.12,.11,0,.23,0,.34,0,.07,0,.12-.01,.14-.09,0-.03,.03-.06,.05-.1-.02,0-.04,0-.06,0-.15,0-.3,0-.45,0-.2,0-.35,.12-.41,.3-.04,.14,0,.2,.15,.2h0Z"/>
      <path class="cls-5" d="M7.92,6.42c.21,0,.42,0,.62-.02,.17-.02,.3-.19,.32-.36,0-.07-.06-.12-.16-.12-.03,.08-.04,.16-.09,.22-.03,.05-.11,.07-.17,.08-.11,.01-.23,.01-.34,.01-.07,0-.12,.01-.14,.09,0,.03-.03,.06-.05,.1h0Z"/>
      <path class="cls-5" d="M7.92,6.42c.21,0,.42,0,.62-.02,.17-.02,.3-.19,.32-.36,0-.07-.06-.12-.16-.12-.03,.08-.04,.16-.09,.22-.03,.05-.11,.07-.17,.08-.11,.01-.23,.01-.34,.01-.07,0-.12,.01-.14,.09,0,.03-.03,.06-.05,.1h0Z"/>
      <path class="cls-5" d="M6.79,8.47c.12-.18,.24-.21,.41-.09,.1,.07,.21,.15,.31,.22,.06-.03,.12-.06,.2-.1-.18-.12-.35-.25-.54-.36-.12-.07-.26-.04-.38,.04-.14,.09-.14,.17,0,.28h0Z"/>
      <path class="cls-5" d="M6.79,8.47c.12-.18,.24-.21,.41-.09,.1,.07,.21,.15,.31,.22,.06-.03,.12-.06,.2-.1-.18-.12-.35-.25-.54-.36-.12-.07-.26-.04-.38,.04-.14,.09-.14,.17,0,.28h0Z"/>
      <path class="cls-5" d="M7.35,6.77c.16-.13,.33-.25,.47-.38,.12-.11,.14-.26,.1-.42-.04-.14-.12-.17-.24-.08,.02,.07,.07,.14,.06,.21,0,.06-.04,.14-.09,.19-.08,.08-.17,.15-.26,.21-.06,.04-.09,.09-.06,.16,.01,.03,.01,.07,.02,.12h0Z"/>
      <path class="cls-5" d="M7.35,6.77c.16-.13,.33-.25,.47-.38,.12-.11,.14-.26,.1-.42-.04-.14-.12-.17-.24-.08,.02,.07,.07,.14,.06,.21,0,.06-.04,.14-.09,.19-.08,.08-.17,.15-.26,.21-.06,.04-.09,.09-.06,.16,.01,.03,.01,.07,.02,.12h0Z"/>
      <path class="cls-5" d="M8.61,9.12c-.13-.17-.11-.29,.06-.43,.07-.06,.14-.12,.22-.17,.06-.04,.09-.08,.06-.16-.01-.03-.01-.07-.02-.12-.17,.14-.34,.26-.49,.41-.11,.11-.12,.26-.08,.41,.04,.16,.16,.14,.25,.06h0Z"/>
      <path class="cls-5" d="M8.61,9.12c-.13-.17-.11-.29,.06-.43,.07-.06,.14-.12,.22-.17,.06-.04,.09-.08,.06-.16-.01-.03-.01-.07-.02-.12-.17,.14-.34,.26-.49,.41-.11,.11-.12,.26-.08,.41,.04,.16,.16,.14,.25,.06h0Z"/>
      <path class="cls-5" d="M8.57,6.51c.18,.12,.34,.25,.52,.35,.13,.08,.27,.05,.4-.03,.14-.08,.14-.18,0-.28-.13,.18-.24,.2-.42,.08-.08-.05-.16-.1-.23-.16-.06-.05-.1-.06-.16,0-.03,.02-.06,.03-.11,.05h0Z"/>
      <path class="cls-5" d="M8.57,6.51c.18,.12,.34,.25,.52,.35,.13,.08,.27,.05,.4-.03,.14-.08,.14-.18,0-.28-.13,.18-.24,.2-.42,.08-.08-.05-.16-.1-.23-.16-.06-.05-.1-.06-.16,0-.03,.02-.06,.03-.11,.05h0Z"/>
      <path class="cls-5" d="M7.08,7.4c.06-.21,.13-.41,.16-.62,.03-.15-.04-.29-.16-.38-.12-.1-.19-.07-.25,.09,.02,0,.05,.02,.07,.03,.12,.05,.18,.17,.14,.29-.03,.12-.07,.23-.1,.35-.02,.06-.03,.11,.04,.14,.03,.02,.06,.06,.09,.1h0Z"/>
      <path class="cls-5" d="M7.08,7.4c.06-.21,.13-.41,.16-.62,.03-.15-.04-.29-.16-.38-.12-.1-.19-.07-.25,.09,.02,0,.05,.02,.07,.03,.12,.05,.18,.17,.14,.29-.03,.12-.07,.23-.1,.35-.02,.06-.03,.11,.04,.14,.03,.02,.06,.06,.09,.1h0Z"/>
      <path class="cls-5" d="M9.44,8.53c-.2-.07-.26-.17-.2-.38,.03-.1,.06-.19,.09-.29,.02-.05,.03-.1-.03-.14-.03-.02-.06-.06-.09-.1-.05,.17-.11,.33-.14,.49-.02,.1-.03,.2,0,.3,.02,.08,.08,.15,.14,.22,.1,.11,.2,.05,.24-.09h0Z"/>
      <path class="cls-5" d="M9.44,8.53c-.2-.07-.26-.17-.2-.38,.03-.1,.06-.19,.09-.29,.02-.05,.03-.1-.03-.14-.03-.02-.06-.06-.09-.1-.05,.17-.11,.33-.14,.49-.02,.1-.03,.2,0,.3,.02,.08,.08,.15,.14,.22,.1,.11,.2,.05,.24-.09h0Z"/>
      <path class="cls-5" d="M9.06,6.96c.07,.2,.13,.39,.2,.57,.06,.16,.2,.23,.36,.25,.15,.01,.2-.06,.16-.22-.02,0-.05,.01-.07,.02-.13,.03-.24-.03-.29-.16-.04-.11-.08-.22-.11-.33-.02-.06-.04-.11-.12-.1-.03,0-.07-.01-.13-.03h0Z"/>
      <path class="cls-5" d="M9.06,6.96c.07,.2,.13,.39,.2,.57,.06,.16,.2,.23,.36,.25,.15,.01,.2-.06,.16-.22-.02,0-.05,.01-.07,.02-.13,.03-.24-.03-.29-.16-.04-.11-.08-.22-.11-.33-.02-.06-.04-.11-.12-.1-.03,0-.07-.01-.13-.03h0Z"/>
      <path class="cls-5" d="M6.5,7.47c.22-.06,.31-.01,.38,.2,.02,.05,.04,.1,.05,.15,.03,.15,.09,.25,.28,.22-.07-.2-.13-.4-.22-.59-.06-.14-.19-.2-.35-.2-.13,0-.19,.03-.15,.22h0Z"/>
      <path class="cls-5" d="M6.5,7.47c.22-.06,.31-.01,.38,.2,.02,.05,.04,.1,.05,.15,.03,.15,.09,.25,.28,.22-.07-.2-.13-.4-.22-.59-.06-.14-.19-.2-.35-.2-.13,0-.19,.03-.15,.22h0Z"/>
      <path class="cls-5" d="M8.05,8.49c-.14-.21-.08-.5,.14-.65,.03-.02,.07-.04,.11-.06,.26-.12,.4-.39,.34-.67-.06-.27-.3-.47-.57-.48-.28,0-.52,.19-.59,.49-.05,.18-.03,.36,.03,.56-.02-.02-.04-.05-.05-.07-.21-.34-.1-.79,.25-.99,.35-.2,.79-.07,.98,.28,.05,.09,.07,.18,.1,.27,.02,.08,.07,.15,.11,.22,.01,.02,.03,.03,.04,.05,.02,.03,.02,.05,0,.07-.02,.01-.04,.03-.05,.05,0,.01-.02,.03-.02,.04,.04,.05,0,.08-.04,.11,.03,.03,.04,.06,0,.11-.01,.02,0,.06,0,.09,.03,.09,0,.12-.09,.13-.1,0-.19,0-.28,.01-.22,.04-.35,.18-.39,.4,0,.01,0,.03-.01,.05h0Z"/>
      <path class="cls-5" d="M7.75,7.06s-.05-.03-.07-.04c-.08,.11-.12,.35,.06,.53-.03,.02-.05,.03-.08,.05-.17-.18-.19-.5,0-.71,.03,.02,.06,.04,.09,.05,.08,.05,.17,.1,.25,.16,0,0,.01,.01,.01,.02,0,.08,0,.17,0,.25,0,0,0,.01-.01,.02-.02,.01-.05,.03-.07,.04,0,0,0,0-.01,0v-.02c0-.08,0-.17,0-.25,0-.01,0-.02-.01-.02-.02-.01-.05-.03-.07-.04-.05,.09-.05,.18,0,.27-.03,.02-.05,.03-.08,.05-.07-.12-.07-.25,0-.37h0Z"/>
      <path class="cls-5" d="M8.44,7.47s.03-.05,.04-.08c0-.03,.02-.06,.02-.09,0,0,0-.01,.01-.01,.03,0,.05,0,.08,0,0,.1-.06,.23-.13,.31-.06-.04-.11-.07-.17-.11-.06-.03-.11-.07-.17-.1,0,0-.01,0-.01-.02,0-.09,0-.17,0-.26,0,0,0-.01,0-.02,.11-.07,.23-.14,.34-.21,0,0,0,0,0,0,.08,.09,.12,.19,.13,.31h-.09c0-.06-.03-.13-.06-.18-.02,.01-.04,.02-.06,.04-.06,.03-.11,.07-.17,.1,0,0-.01,0-.01,.02,0,.05,0,.1,0,.15,0,0,0,.01,0,.01,.07,.05,.15,.09,.22,.14,0,0,0,0,0,0h0Z"/>
      <path class="cls-5" d="M7.73,6.82s.05,.03,.08,.05c.08,.05,.16,.1,.24,.14,0,0,.01,0,.02,0,.1-.06,.21-.13,.31-.19,0,0,0,0,0,0-.2-.16-.48-.14-.66,0Zm.19,0c.09-.03,.18-.03,.28,0,0,0,0,0,0,0-.04,.03-.08,.05-.13,.08,0,0-.01,0-.02,0-.04-.02-.08-.05-.12-.07,0,0,0,0,0,0Z"/>
      <path class="cls-5" d="M7.73,6.82s.05,.03,.08,.05c.08,.05,.16,.1,.24,.14,0,0,.01,0,.02,0,.1-.06,.21-.13,.31-.19,0,0,0,0,0,0-.2-.16-.48-.14-.66,0Zm.19,0c.09-.03,.18-.03,.28,0,0,0,0,0,0,0-.04,.03-.08,.05-.13,.08,0,0-.01,0-.02,0-.04-.02-.08-.05-.12-.07,0,0,0,0,0,0Z"/>
      <path class="cls-5" d="M7.73,7.66c.2,.16,.48,.14,.66,0-.03-.02-.06-.03-.08-.05-.08-.05-.16-.1-.23-.14,0,0-.01,0-.02,0-.1,.06-.21,.13-.31,.19,0,0,0,0,0,0Zm.19,0s0,0,0,0c.04-.03,.08-.05,.13-.08,0,0,.01,0,.02,0,.04,.02,.08,.05,.12,.07,0,0,0,0,0,0-.09,.03-.18,.03-.28,0Z"/>
      <path class="cls-5" d="M7.73,7.66c.2,.16,.48,.14,.66,0-.03-.02-.06-.03-.08-.05-.08-.05-.16-.1-.23-.14,0,0-.01,0-.02,0-.1,.06-.21,.13-.31,.19,0,0,0,0,0,0Zm.19,0s0,0,0,0c.04-.03,.08-.05,.13-.08,0,0,.01,0,.02,0,.04,.02,.08,.05,.12,.07,0,0,0,0,0,0-.09,.03-.18,.03-.28,0Z"/>
      <path class="cls-3" d="M5,7.49v.02c0,1.73,1.39,3.13,3.12,3.14h.04c1.72-.01,3.11-1.4,3.12-3.12,0,0,0-.01,0-.02,0-1.73-1.39-3.13-3.12-3.14,0,0-.01,0-.02,0-1.73,0-3.13,1.39-3.14,3.12Z"/>
      <path class="cls-3" d="M5,7.49v.02c0,1.73,1.39,3.13,3.12,3.14h.04c1.72-.01,3.11-1.4,3.12-3.12,0,0,0-.01,0-.02,0-1.73-1.39-3.13-3.12-3.14,0,0-.01,0-.02,0-1.73,0-3.13,1.39-3.14,3.12Z"/>
    </g>
  </g>
  <g>
    <path d="M30.13,14.8h-1.88V7.66s-.08-.02-.12-.03c-.21,.64-.42,1.28-.63,1.92-.51,1.61-1.03,3.21-1.52,4.82-.11,.37-.28,.46-.64,.46-1.03,0-1.03,0-1.34-.97-.65-2.08-1.31-4.16-2.06-6.23v7.16h-1.9V5.18c.84,0,1.66-.02,2.48,.02,.14,0,.32,.3,.38,.5,.66,2.02,1.3,4.05,1.94,6.08,.05,.16,.12,.32,.24,.65,.8-2.52,1.56-4.87,2.3-7.22h2.73V14.8Z"/>
    <path d="M59.02,7.97h-1.78c-.48-1.1-1.08-1.52-2.03-1.34-.5,.09-.92,.31-1.01,.89-.09,.61,.22,.97,.74,1.15,.66,.23,1.35,.41,2.02,.6,1.61,.47,2.42,1.37,2.47,2.74,.06,1.62-1.13,2.91-2.96,3.03-.8,.05-1.66-.02-2.43-.25-1.37-.41-2.13-1.63-2.09-3.13,.51,0,1.03-.03,1.54,.02,.13,.01,.3,.23,.35,.38,.37,1.27,1.85,1.87,2.93,1.11,.3-.21,.5-.67,.57-1.04,.08-.47-.23-.86-.69-1.02-.82-.28-1.65-.5-2.48-.76-1.76-.54-2.56-2.18-1.83-3.73,.6-1.28,2.3-1.92,4.1-1.56,1.56,.32,2.48,1.34,2.57,2.91Z"/>
    <path d="M48.8,8.51v-3.28h1.8V14.78h-1.66c-.01-.2-.03-.39-.04-.56-.49,.24-.95,.58-1.47,.7-1.76,.42-3.31-.48-3.88-2.2-.39-1.18-.31-2.34,.28-3.45,.8-1.5,3.08-2.44,4.97-.75Zm.19,2.77c-.12-.4-.2-.82-.38-1.19-.3-.6-.8-.94-1.49-.96-.71-.02-1.23,.31-1.59,.91-.68,1.17-.27,2.82,.81,3.32,1.28,.6,2.58-.45,2.65-2.09Z"/>
    <path d="M73.96,8.39c.03-.21,.05-.36,.07-.55h1.83v6.94h-1.73c-.02-.19-.04-.39-.06-.59-1.85,1.18-3.52,1.07-4.66-.28-1.21-1.43-1.19-3.85,.05-5.23,1.14-1.28,2.8-1.4,4.5-.28Zm-3.53,2.95c0,1.22,.72,2.12,1.73,2.16,.95,.04,1.68-.56,1.9-1.58,.26-1.19-.24-2.33-1.18-2.69-.17-.06-.35-.1-.52-.11-1.13-.05-1.93,.88-1.93,2.21Z"/>
    <path d="M79.38,14.8h-1.88V7.85h1.76c.02,.22,.03,.45,.06,.75,.16-.12,.28-.21,.4-.3,.87-.68,1.84-.87,2.9-.57,.83,.23,1.46,.99,1.48,1.93,.04,1.69,.01,3.38,.01,5.12h-1.81c0-.42,0-.85,0-1.29,0-.97,0-1.93,0-2.9-.01-.87-.5-1.41-1.3-1.44-.82-.04-1.57,.59-1.6,1.4-.04,1.19-.02,2.38-.02,3.57,0,.22,0,.43,0,.68Z"/>
    <path d="M37.22,14.8h-1.8V7.85h1.74c.01,.24,.02,.48,.03,.62,.6-.27,1.18-.64,1.82-.78,1.78-.41,3.01,.62,3.01,2.45,0,1.53,0,3.06,0,4.64h-1.82c0-1.07,0-2.15,0-3.23,0-.34,.02-.69-.01-1.03-.08-.86-.55-1.34-1.32-1.37-.77-.03-1.49,.5-1.56,1.3-.09,.94-.07,1.89-.09,2.84,0,.48,0,.97,0,1.52Z"/>
    <path d="M67.48,10.35c-.48,0-.97,.02-1.45-.01-.15,0-.33-.12-.42-.24-.55-.8-1.15-1.11-1.9-.95-.76,.16-1.44,.9-1.45,1.79-.01,.58,.08,1.23,.35,1.73,.63,1.17,2.32,1.17,2.9,0,.29-.59,.65-.65,1.17-.62,.28,.02,.56,0,.84,0,.09,1.54-1.34,2.88-3.27,2.97-1.79,.08-3.77-.9-3.93-3.53-.11-1.85,.99-3.7,3.52-3.89,1.89-.14,3.48,1.09,3.64,2.74Z"/>
    <path d="M31.93,7.83h1.78v6.96h-1.78V7.83Z"/>
    <path d="M33.71,6.81h-1.78v-1.59h1.78v1.59Z"/>
  </g>
</svg>