<?xml version="1.0" encoding="UTF-8"?>
<svg id="Layer_1" data-name="Layer 1" xmlns="http://www.w3.org/2000/svg" xmlns:xlink="http://www.w3.org/1999/xlink" viewBox="0 0 30 20">
  <defs>
    <style>
      .cls-1 {
        fill: #fff;
      }

      .cls-2 {
        fill: url(#radial-gradient);
      }

      .cls-3 {
        fill: url(#radial-gradient-2);
      }

      .cls-4 {
        fill: none;
      }

      .cls-5 {
        fill: url(#linear-gradient);
      }

      .cls-6 {
        fill: #7a4217;
      }
    </style>
    <radialGradient id="radial-gradient" cx="3.79" cy="9.97" fx="3.79" fy="9.97" r="2.42" gradientUnits="userSpaceOnUse">
      <stop offset="0" stop-color="#ecb71a"/>
      <stop offset="0" stop-color="#dda517"/>
      <stop offset=".99" stop-color="#fdd649"/>
    </radialGradient>
    <radialGradient id="radial-gradient-2" cx="606.3" cy="9.17" fx="606.3" fy="9.17" r=".87" gradientTransform="translate(609.85) rotate(-180) scale(1 -1)" gradientUnits="userSpaceOnUse">
      <stop offset="0" stop-color="#ecc440"/>
      <stop offset=".03" stop-color="#f5c230"/>
      <stop offset=".51" stop-color="#fffa8a"/>
      <stop offset=".71" stop-color="#ddac17"/>
      <stop offset="1" stop-color="#ffff95"/>
    </radialGradient>
    <linearGradient id="linear-gradient" x1="605.25" y1="9.17" x2="607.34" y2="9.17" gradientTransform="translate(609.85) rotate(-180) scale(1 -1)" gradientUnits="userSpaceOnUse">
      <stop offset="0" stop-color="#ecb71a"/>
      <stop offset="0" stop-color="#dda517"/>
      <stop offset=".46" stop-color="#b57a11"/>
      <stop offset=".99" stop-color="#fdd649"/>
    </linearGradient>
  </defs>
  <g>
    <path class="cls-2" d="M3.54,12.63c-.38-.56-.21-1.35,.37-1.77,.09-.06,.19-.12,.28-.16,.7-.32,1.08-1.06,.93-1.8-.15-.73-.8-1.27-1.55-1.28-.77-.02-1.4,.5-1.61,1.31-.12,.49-.09,.97,.09,1.5-.05-.06-.1-.13-.14-.19-.57-.92-.26-2.13,.68-2.67,.94-.54,2.14-.19,2.65,.77,.12,.23,.2,.48,.26,.74,.05,.21,.2,.39,.31,.59,.03,.05,.07,.09,.1,.14,.05,.07,.05,.14-.02,.2-.05,.04-.1,.08-.14,.12-.03,.03-.06,.09-.05,.11,.11,.14,0,.21-.1,.29,.08,.09,.12,.17,.03,.29-.04,.05-.01,.17,0,.24,.07,.23,0,.34-.24,.35-.26,.01-.52,0-.77,.04-.59,.1-.95,.47-1.06,1.07,0,.04-.02,.08-.03,.13Z"/>
    <path class="cls-1" d="M4.84,9.65c.24-.64-.04-1.38-.65-1.69-.62-.32-1.39-.14-1.77,.42-.2,.29-.29,.61-.24,.96,.06,.47,.3,.82,.71,1.05-.03,.06-.05,.11-.08,.17-.03,.05-.05,.1-.08,.15l-.03-.02s-.07-.03-.11-.03c0,0,0,0,0,0-.09,0-.18,.05-.23,.13l-.4,.77-.33,.63c-.03,.06-.04,.12-.02,.18,0,0,0,0,0,0,.01,.08,.06,.15,.16,.19,.07,.03,.13,.07,.2,.1,.16,.08,.29,.03,.37-.13,.17-.35,.35-.7,.52-1.05l.17-.32v-.02s.04-.09,.04-.14c0-.08-.06-.16-.13-.2l-.07-.04c.06-.11,.11-.22,.16-.32,.83,.31,1.59-.16,1.83-.8Zm-1.99,1.28c.07,.04,.09,.09,.05,.16-.23,.47-.46,.94-.7,1.41-.01,.03-.04,.04-.06,.07-.03,0-.07,0-.09-.02-.07-.03-.14-.07-.21-.1-.1-.05-.11-.09-.06-.19,.18-.38,.37-.75,.56-1.13,.04-.09,.08-.17,.13-.26,.04-.08,.09-.09,.17-.06,.08,.04,.15,.07,.23,.11Zm-.46-1.32c-.24-.63,.08-1.35,.71-1.59,.65-.25,1.36,.07,1.61,.72,.24,.64-.08,1.35-.72,1.59-.64,.25-1.35-.07-1.6-.72Z"/>
    <g>
      <path class="cls-1" d="M1.2,7.69s-.07-.03-.07-.07v-.71s.03-.07,.07-.07h.71s.07,.03,.07,.07-.03,.07-.07,.07h-.64v.64s-.03,.07-.07,.07Zm0-.74v.68s0-.68,0-.68Z"/>
      <path class="cls-1" d="M6.16,7.69s-.07-.03-.07-.07v-.64h-.64s-.07-.03-.07-.07,.03-.07,.07-.07h.71s.07,.03,.07,.07v.71s-.03,.07-.07,.07Zm-.71-.78h.71v.71s0-.71,0-.71h-.71Z"/>
      <path class="cls-1" d="M1.91,13.15h-.71s-.07-.03-.07-.07v-.71s.03-.07,.07-.07,.07,.03,.07,.07v.64h.64s.07,.03,.07,.07-.03,.07-.07,.07Zm-.71-.78h0v.71h0v-.71Z"/>
      <path class="cls-1" d="M6.16,13.15h-.71s-.07-.03-.07-.07,.03-.07,.07-.07h.64v-.64s.03-.07,.07-.07,.07,.03,.07,.07v.71s-.03,.07-.07,.07Zm-.71-.07h0Zm.71-.71h0v.68s0-.68,0-.68Z"/>
    </g>
    <g>
      <path class="cls-3" d="M3.56,8.3c.48,0,.87,.4,.87,.88,0,.48-.4,.87-.88,.87-.48,0-.87-.4-.87-.88,0-.48,.4-.87,.88-.87h0Z"/>
      <path class="cls-5" d="M2.51,9.16h0c0,.58,.46,1.05,1.04,1.05,0,0,0,0,.01,0,.57,0,1.04-.47,1.04-1.04,0,0,0,0,0,0,0-.57-.46-1.04-1.04-1.05,0,0,0,0,0,0-.57,0-1.04,.46-1.05,1.04Zm.18,0c0-.48,.4-.87,.88-.87s.87,.4,.87,.88c0,.48-.4,.87-.88,.87-.48,0-.87-.4-.87-.88Z"/>
      <path class="cls-6" d="M3.86,8.83s.03,.02,.05,.04c0,0,0-.01,.01-.02,.04-.05,.11-.04,.14,.02,.02,.05,.03,.1,.05,.15,0,.01,.02,.03,.03,.04,.02,.02,.04,.03,.06,.05-.01-.04-.03-.08-.04-.12-.02-.05-.03-.09-.05-.14-.02-.06-.07-.09-.13-.09-.05,0-.1,.03-.13,.08h0Z"/>
      <path class="cls-6" d="M3.86,8.83s.03,.02,.05,.04c0,0,0-.01,.01-.02,.04-.05,.11-.04,.14,.02,.02,.05,.03,.1,.05,.15,0,.01,.02,.03,.03,.04,.02,.02,.04,.03,.06,.05-.01-.04-.03-.08-.04-.12-.02-.05-.03-.09-.05-.14-.02-.06-.07-.09-.13-.09-.05,0-.1,.03-.13,.08h0Z"/>
      <path class="cls-6" d="M3.25,9.51s-.03-.02-.05-.04c0,0,0,.01-.01,.02-.04,.05-.11,.04-.14-.02-.02-.05-.03-.1-.05-.15,0-.01-.02-.03-.03-.04-.02-.02-.04-.03-.06-.05,0,.02,.01,.04,.02,.06,.02,.06,.04,.13,.07,.19,.02,.06,.07,.09,.13,.09,.06,0,.1-.03,.13-.08h0Z"/>
      <path class="cls-6" d="M3.25,9.51s-.03-.02-.05-.04c0,0,0,.01-.01,.02-.04,.05-.11,.04-.14-.02-.02-.05-.03-.1-.05-.15,0-.01-.02-.03-.03-.04-.02-.02-.04-.03-.06-.05,0,.02,.01,.04,.02,.06,.02,.06,.04,.13,.07,.19,.02,.06,.07,.09,.13,.09,.06,0,.1-.03,.13-.08h0Z"/>
      <path class="cls-6" d="M3.51,9.63s-.04,0-.06,0c0,.03,0,.05-.02,.07-.02,.04-.07,.05-.11,.02-.04-.03-.08-.06-.12-.08-.01,0-.03-.01-.05-.01-.02,0-.05,0-.08,0,.02,.02,.05,.04,.07,.05,.05,.03,.1,.07,.15,.1,.05,.03,.1,.03,.15,0,.05-.03,.07-.08,.06-.14h0Z"/>
      <path class="cls-6" d="M3.51,9.63s-.04,0-.06,0c0,.03,0,.05-.02,.07-.02,.04-.07,.05-.11,.02-.04-.03-.08-.06-.12-.08-.01,0-.03-.01-.05-.01-.02,0-.05,0-.08,0,.02,.02,.05,.04,.07,.05,.05,.03,.1,.07,.15,.1,.05,.03,.1,.03,.15,0,.05-.03,.07-.08,.06-.14h0Z"/>
      <path class="cls-6" d="M3.6,8.71s.04,0,.06,0c0-.01,0-.02,0-.03,.01-.07,.07-.1,.13-.06,.04,.03,.07,.05,.11,.08,.02,.01,.03,.02,.06,.02,.02,0,.04,0,.07,0-.03-.02-.05-.04-.08-.06-.05-.03-.09-.07-.14-.1-.05-.03-.1-.03-.15,0-.05,.03-.07,.08-.06,.14h0Z"/>
      <path class="cls-6" d="M3.6,8.71s.04,0,.06,0c0-.01,0-.02,0-.03,.01-.07,.07-.1,.13-.06,.04,.03,.07,.05,.11,.08,.02,.01,.03,.02,.06,.02,.02,0,.04,0,.07,0-.03-.02-.05-.04-.08-.06-.05-.03-.09-.07-.14-.1-.05-.03-.1-.03-.15,0-.05,.03-.07,.08-.06,.14h0Z"/>
      <path class="cls-6" d="M3.29,8.56c-.08,.06-.15,.12-.22,.17-.04,.04-.05,.09-.04,.15,.02,.06,.06,.09,.12,.1,0-.02,.01-.04,.02-.06-.02,0-.03-.01-.04-.02-.04-.03-.04-.09,0-.13,.04-.03,.08-.06,.12-.09,.01-.01,.02-.03,.03-.04,0-.02,.02-.05,.03-.08h0Z"/>
      <path class="cls-6" d="M3.29,8.56c-.08,.06-.15,.12-.22,.17-.04,.04-.05,.09-.04,.15,.02,.06,.06,.09,.12,.1,0-.02,.01-.04,.02-.06-.02,0-.03-.01-.04-.02-.04-.03-.04-.09,0-.13,.04-.03,.08-.06,.12-.09,.01-.01,.02-.03,.03-.04,0-.02,.02-.05,.03-.08h0Z"/>
      <path class="cls-6" d="M3.12,9.26s-.01-.04-.02-.06c-.02,0-.03,0-.05,0-.05,0-.09-.05-.08-.1,.01-.05,.03-.1,.04-.15,0-.02,0-.03,0-.05,0-.02-.01-.05-.02-.07,0,0,0,.01-.01,.02-.02,.08-.05,.16-.07,.24-.01,.06,0,.11,.05,.15,.05,.04,.1,.04,.15,.02h0Z"/>
      <path class="cls-6" d="M3.12,9.26s-.01-.04-.02-.06c-.02,0-.03,0-.05,0-.05,0-.09-.05-.08-.1,.01-.05,.03-.1,.04-.15,0-.02,0-.03,0-.05,0-.02-.01-.05-.02-.07,0,0,0,.01-.01,.02-.02,.08-.05,.16-.07,.24-.01,.06,0,.11,.05,.15,.05,.04,.1,.04,.15,.02h0Z"/>
      <path class="cls-6" d="M3.99,9.08s.01,.04,.02,.05c.02,0,.04,0,.06,0,.04,0,.08,.05,.06,.1-.01,.05-.03,.1-.04,.15,0,.02,0,.04,0,.05,0,.02,.01,.04,.02,.07,0,0,0-.02,.01-.03,.02-.08,.05-.15,.07-.23,.01-.06,0-.11-.04-.14-.04-.04-.09-.05-.14-.03,0,0-.01,0-.02,0h0Z"/>
      <path class="cls-6" d="M3.99,9.08s.01,.04,.02,.05c.02,0,.04,0,.06,0,.04,0,.08,.05,.06,.1-.01,.05-.03,.1-.04,.15,0,.02,0,.04,0,.05,0,.02,.01,.04,.02,.07,0,0,0-.02,.01-.03,.02-.08,.05-.15,.07-.23,.01-.06,0-.11-.04-.14-.04-.04-.09-.05-.14-.03,0,0-.01,0-.02,0h0Z"/>
      <path class="cls-6" d="M3.96,9.36s-.01,.04-.02,.06c0,0,0,0,0,0,.04,0,.06,.03,.07,.07,0,.04-.01,.07-.04,.09-.04,.03-.07,.05-.11,.08-.01,.01-.02,.03-.03,.05,0,.02-.01,.04-.02,.07,0,0,.02,0,.02-.01,.06-.05,.12-.1,.18-.14,.05-.04,.06-.09,.05-.15-.01-.06-.05-.1-.12-.11h0Z"/>
      <path class="cls-6" d="M3.96,9.36s-.01,.04-.02,.06c0,0,0,0,0,0,.04,0,.06,.03,.07,.07,0,.04-.01,.07-.04,.09-.04,.03-.07,.05-.11,.08-.01,.01-.02,.03-.03,.05,0,.02-.01,.04-.02,.07,0,0,.02,0,.02-.01,.06-.05,.12-.1,.18-.14,.05-.04,.06-.09,.05-.15-.01-.06-.05-.1-.12-.11h0Z"/>
      <path class="cls-6" d="M3.78,9.57s-.03,.02-.05,.04c0,.02,.02,.04,.03,.06,.01,.05-.03,.09-.08,.09-.05,0-.1,0-.15,0-.01,0-.03,0-.04,.02-.02,.01-.04,.03-.06,.05,0,0,.01,0,.02,0,.08,0,.16,0,.24,0,.06,0,.1-.04,.12-.1,.02-.06,0-.11-.04-.15h0Z"/>
      <path class="cls-6" d="M3.78,9.57s-.03,.02-.05,.04c0,.02,.02,.04,.03,.06,.01,.05-.03,.09-.08,.09-.05,0-.1,0-.15,0-.01,0-.03,0-.04,.02-.02,.01-.04,.03-.06,.05,0,0,.01,0,.02,0,.08,0,.16,0,.24,0,.06,0,.1-.04,.12-.1,.02-.06,0-.11-.04-.15h0Z"/>
      <path class="cls-6" d="M3.68,8.52c-.09,0-.17,0-.26,0-.06,0-.1,.04-.11,.1-.02,.06,0,.11,.04,.15,.02-.01,.03-.03,.05-.04-.03-.03-.04-.06-.02-.1,.02-.04,.05-.05,.09-.05,0,0,.02,0,.03,0,.07,0,.15,.01,.2-.07h0Z"/>
      <path class="cls-6" d="M3.68,8.52c-.09,0-.17,0-.26,0-.06,0-.1,.04-.11,.1-.02,.06,0,.11,.04,.15,.02-.01,.03-.03,.05-.04-.03-.03-.04-.06-.02-.1,.02-.04,.05-.05,.09-.05,0,0,.02,0,.03,0,.07,0,.15,.01,.2-.07h0Z"/>
      <path class="cls-6" d="M3.37,9.7s0-.04,.02-.06c.01-.03,.04-.04,.06-.04,.04,0,.08,0,.11,0,.02,0,.04,0,.05-.03,0-.01,.01-.02,.02-.03,0,0-.01,0-.02,0-.05,0-.1,0-.15,0-.07,0-.12,.04-.14,.1-.01,.05,0,.07,.05,.07h0Z"/>
      <path class="cls-6" d="M3.37,9.7s0-.04,.02-.06c.01-.03,.04-.04,.06-.04,.04,0,.08,0,.11,0,.02,0,.04,0,.05-.03,0-.01,.01-.02,.02-.03,0,0-.01,0-.02,0-.05,0-.1,0-.15,0-.07,0-.12,.04-.14,.1-.01,.05,0,.07,.05,.07h0Z"/>
      <path class="cls-6" d="M3.48,8.81c.07,0,.14,0,.21,0,.06,0,.1-.06,.11-.12,0-.02-.02-.04-.05-.04,0,.03-.01,.05-.03,.07-.01,.02-.04,.02-.06,.03-.04,0-.08,0-.11,0-.02,0-.04,0-.05,.03,0,.01-.01,.02-.02,.03h0Z"/>
      <path class="cls-6" d="M3.48,8.81c.07,0,.14,0,.21,0,.06,0,.1-.06,.11-.12,0-.02-.02-.04-.05-.04,0,.03-.01,.05-.03,.07-.01,.02-.04,.02-.06,.03-.04,0-.08,0-.11,0-.02,0-.04,0-.05,.03,0,.01-.01,.02-.02,.03h0Z"/>
      <path class="cls-6" d="M3.11,9.49c.04-.06,.08-.07,.14-.03,.03,.02,.07,.05,.1,.07,.02-.01,.04-.02,.07-.03-.06-.04-.12-.08-.18-.12-.04-.02-.09-.01-.13,.01-.05,.03-.05,.06,0,.09h0Z"/>
      <path class="cls-6" d="M3.11,9.49c.04-.06,.08-.07,.14-.03,.03,.02,.07,.05,.1,.07,.02-.01,.04-.02,.07-.03-.06-.04-.12-.08-.18-.12-.04-.02-.09-.01-.13,.01-.05,.03-.05,.06,0,.09h0Z"/>
      <path class="cls-6" d="M3.29,8.92c.05-.04,.11-.08,.16-.13,.04-.04,.05-.09,.03-.14-.01-.05-.04-.06-.08-.03,0,.02,.02,.05,.02,.07,0,.02-.01,.05-.03,.06-.03,.03-.06,.05-.09,.07-.02,.01-.03,.03-.02,.05,0,.01,0,.02,0,.04h0Z"/>
      <path class="cls-6" d="M3.29,8.92c.05-.04,.11-.08,.16-.13,.04-.04,.05-.09,.03-.14-.01-.05-.04-.06-.08-.03,0,.02,.02,.05,.02,.07,0,.02-.01,.05-.03,.06-.03,.03-.06,.05-.09,.07-.02,.01-.03,.03-.02,.05,0,.01,0,.02,0,.04h0Z"/>
      <path class="cls-6" d="M3.71,9.71c-.04-.06-.04-.1,.02-.14,.02-.02,.05-.04,.07-.06,.02-.01,.03-.03,.02-.05,0-.01,0-.02,0-.04-.06,.05-.11,.09-.16,.14-.04,.04-.04,.09-.03,.14,.01,.05,.05,.05,.08,.02h0Z"/>
      <path class="cls-6" d="M3.71,9.71c-.04-.06-.04-.1,.02-.14,.02-.02,.05-.04,.07-.06,.02-.01,.03-.03,.02-.05,0-.01,0-.02,0-.04-.06,.05-.11,.09-.16,.14-.04,.04-.04,.09-.03,.14,.01,.05,.05,.05,.08,.02h0Z"/>
      <path class="cls-6" d="M3.7,8.84c.06,.04,.11,.08,.17,.12,.04,.03,.09,.02,.13,0,.05-.03,.05-.06,0-.09-.04,.06-.08,.07-.14,.03-.03-.02-.05-.03-.08-.05-.02-.02-.03-.02-.05,0,0,0-.02,.01-.04,.02h0Z"/>
      <path class="cls-6" d="M3.7,8.84c.06,.04,.11,.08,.17,.12,.04,.03,.09,.02,.13,0,.05-.03,.05-.06,0-.09-.04,.06-.08,.07-.14,.03-.03-.02-.05-.03-.08-.05-.02-.02-.03-.02-.05,0,0,0-.02,.01-.04,.02h0Z"/>
      <path class="cls-6" d="M3.2,9.13c.02-.07,.04-.14,.05-.21,0-.05-.01-.1-.05-.13-.04-.03-.06-.02-.08,.03,0,0,.02,0,.02,0,.04,.02,.06,.06,.05,.1-.01,.04-.02,.08-.03,.12,0,.02,0,.04,.01,.05,.01,0,.02,.02,.03,.03h0Z"/>
      <path class="cls-6" d="M3.2,9.13c.02-.07,.04-.14,.05-.21,0-.05-.01-.1-.05-.13-.04-.03-.06-.02-.08,.03,0,0,.02,0,.02,0,.04,.02,.06,.06,.05,.1-.01,.04-.02,.08-.03,.12,0,.02,0,.04,.01,.05,.01,0,.02,.02,.03,.03h0Z"/>
      <path class="cls-6" d="M3.99,9.51c-.07-.02-.09-.06-.07-.13,0-.03,.02-.06,.03-.1,0-.02,0-.03-.01-.05-.01,0-.02-.02-.03-.03-.02,.06-.04,.11-.05,.16,0,.03,0,.07,0,.1,0,.03,.03,.05,.05,.07,.03,.04,.07,.02,.08-.03h0Z"/>
      <path class="cls-6" d="M3.99,9.51c-.07-.02-.09-.06-.07-.13,0-.03,.02-.06,.03-.1,0-.02,0-.03-.01-.05-.01,0-.02-.02-.03-.03-.02,.06-.04,.11-.05,.16,0,.03,0,.07,0,.1,0,.03,.03,.05,.05,.07,.03,.04,.07,.02,.08-.03h0Z"/>
      <path class="cls-6" d="M3.86,8.99c.02,.07,.04,.13,.07,.19,.02,.05,.06,.08,.12,.08,.05,0,.07-.02,.05-.07,0,0-.02,0-.02,0-.04,.01-.08,0-.1-.05-.01-.04-.03-.07-.04-.11,0-.02-.01-.04-.04-.03-.01,0-.02,0-.04,0h0Z"/>
      <path class="cls-6" d="M3.86,8.99c.02,.07,.04,.13,.07,.19,.02,.05,.06,.08,.12,.08,.05,0,.07-.02,.05-.07,0,0-.02,0-.02,0-.04,.01-.08,0-.1-.05-.01-.04-.03-.07-.04-.11,0-.02-.01-.04-.04-.03-.01,0-.02,0-.04,0h0Z"/>
      <path class="cls-6" d="M3.01,9.16c.07-.02,.1,0,.13,.07,0,.02,.01,.03,.02,.05,0,.05,.03,.08,.09,.07-.02-.07-.04-.13-.07-.2-.02-.05-.06-.07-.11-.07-.04,0-.06,0-.05,.07h0Z"/>
      <path class="cls-6" d="M3.01,9.16c.07-.02,.1,0,.13,.07,0,.02,.01,.03,.02,.05,0,.05,.03,.08,.09,.07-.02-.07-.04-.13-.07-.2-.02-.05-.06-.07-.11-.07-.04,0-.06,0-.05,.07h0Z"/>
      <path class="cls-6" d="M3.52,9.5c-.05-.07-.03-.17,.05-.22,.01,0,.02-.01,.04-.02,.09-.04,.13-.13,.11-.22-.02-.09-.1-.16-.19-.16-.09,0-.17,.06-.2,.16-.02,.06-.01,.12,.01,.18,0,0-.01-.02-.02-.02-.07-.11-.03-.26,.08-.33,.12-.07,.26-.02,.33,.09,.02,.03,.02,.06,.03,.09,0,.03,.02,.05,.04,.07,0,0,0,.01,.01,.02,0,0,0,.02,0,.02,0,0-.01,0-.02,.02,0,0,0,.01,0,.01,.01,.02,0,.03-.01,.04,0,.01,.01,.02,0,.04,0,0,0,.02,0,.03,0,.03,0,.04-.03,.04-.03,0-.06,0-.09,0-.07,.01-.12,.06-.13,.13,0,0,0,0,0,.02h0Z"/>
      <path class="cls-6" d="M3.43,9.02s-.02,0-.02-.01c-.03,.04-.04,.12,.02,.18,0,0-.02,.01-.03,.02-.06-.06-.06-.17,0-.24,0,0,.02,.01,.03,.02,.03,.02,.06,.03,.08,.05,0,0,0,0,0,0,0,.03,0,.06,0,.08,0,0,0,0,0,0,0,0-.02,0-.02,.01,0,0,0,0,0,0h0s0-.06,0-.09c0,0,0,0,0,0,0,0-.02,0-.02-.01-.02,.03-.02,.06,0,.09,0,0-.02,.01-.03,.02-.02-.04-.02-.08,0-.12h0Z"/>
      <path class="cls-6" d="M3.65,9.16s0-.02,.01-.03c0,0,0-.02,0-.03,0,0,0,0,0,0,0,0,.02,0,.03,0,0,.03-.02,.08-.04,.1-.02-.01-.04-.02-.06-.04-.02-.01-.04-.02-.06-.03,0,0,0,0,0,0,0-.03,0-.06,0-.09,0,0,0,0,0,0,.04-.02,.08-.05,.11-.07,0,0,0,0,0,0,.03,.03,.04,.06,.04,.1h-.03s0-.04-.02-.06c0,0-.01,0-.02,.01-.02,.01-.04,.02-.06,.03,0,0,0,0,0,0,0,.02,0,.03,0,.05,0,0,0,0,0,0,.02,.02,.05,.03,.07,.05,0,0,0,0,0,0h0Z"/>
      <path class="cls-6" d="M3.42,8.94s.02,.01,.03,.02c.03,.02,.05,.03,.08,.05,0,0,0,0,0,0,.03-.02,.07-.04,.1-.06,0,0,0,0,0,0-.07-.05-.16-.05-.22,0Zm.06,0s.06,0,.09,0c0,0,0,0,0,0-.01,0-.03,.02-.04,.03,0,0,0,0,0,0-.01,0-.03-.02-.04-.02,0,0,0,0,0,0Z"/>
      <path class="cls-6" d="M3.42,8.94s.02,.01,.03,.02c.03,.02,.05,.03,.08,.05,0,0,0,0,0,0,.03-.02,.07-.04,.1-.06,0,0,0,0,0,0-.07-.05-.16-.05-.22,0Zm.06,0s.06,0,.09,0c0,0,0,0,0,0-.01,0-.03,.02-.04,.03,0,0,0,0,0,0-.01,0-.03-.02-.04-.02,0,0,0,0,0,0Z"/>
      <path class="cls-6" d="M3.42,9.22c.07,.05,.16,.05,.22,0,0,0-.02-.01-.03-.02-.03-.02-.05-.03-.08-.05,0,0,0,0,0,0-.03,.02-.07,.04-.1,.06,0,0,0,0,0,0Zm.06,0s0,0,0,0c.01,0,.03-.02,.04-.03,0,0,0,0,0,0,.01,0,.03,.02,.04,.02,0,0,0,0,0,0-.03,0-.06,0-.09,0Z"/>
      <path class="cls-6" d="M3.42,9.22c.07,.05,.16,.05,.22,0,0,0-.02-.01-.03-.02-.03-.02-.05-.03-.08-.05,0,0,0,0,0,0-.03,.02-.07,.04-.1,.06,0,0,0,0,0,0Zm.06,0s0,0,0,0c.01,0,.03-.02,.04-.03,0,0,0,0,0,0,.01,0,.03,.02,.04,.02,0,0,0,0,0,0-.03,0-.06,0-.09,0Z"/>
      <path class="cls-4" d="M2.51,9.16h0c0,.58,.46,1.05,1.04,1.05h.01c.57,0,1.04-.47,1.04-1.04,0,0,0,0,0,0,0-.57-.46-1.04-1.04-1.05,0,0,0,0,0,0-.57,0-1.04,.46-1.05,1.04Z"/>
      <path class="cls-4" d="M2.51,9.16h0c0,.58,.46,1.05,1.04,1.05h.01c.57,0,1.04-.47,1.04-1.04,0,0,0,0,0,0,0-.57-.46-1.04-1.04-1.05,0,0,0,0,0,0-.57,0-1.04,.46-1.05,1.04Z"/>
    </g>
  </g>
  <g>
    <path class="cls-1" d="M10.88,11.6h-.63v-2.38s-.03,0-.04,0c-.07,.21-.14,.43-.21,.64-.17,.54-.34,1.07-.5,1.61-.04,.12-.09,.15-.21,.15-.34,0-.34,0-.45-.32-.22-.69-.43-1.39-.69-2.07v2.39h-.63v-3.2c.28,0,.55,0,.83,0,.05,0,.11,.1,.13,.17,.22,.67,.43,1.35,.65,2.02,.02,.05,.04,.11,.08,.22,.27-.84,.52-1.62,.77-2.41h.91v3.2Z"/>
    <path class="cls-1" d="M20.5,9.32h-.59c-.16-.37-.36-.5-.67-.45-.17,.03-.31,.1-.34,.3-.03,.2,.07,.32,.25,.38,.22,.08,.45,.13,.67,.2,.54,.16,.81,.45,.82,.91,.02,.54-.38,.97-.98,1.01-.27,.02-.55,0-.81-.08-.46-.14-.71-.54-.69-1.04,.17,0,.34,0,.51,0,.04,0,.1,.08,.11,.13,.12,.42,.62,.62,.98,.37,.1-.07,.17-.22,.19-.35,.03-.16-.08-.29-.23-.34-.27-.09-.55-.17-.82-.25-.59-.18-.85-.73-.61-1.24,.2-.43,.76-.64,1.37-.52,.52,.11,.83,.45,.85,.97Z"/>
    <path class="cls-1" d="M17.1,9.5v-1.09h.6v3.18h-.55c0-.07,0-.13-.01-.19-.16,.08-.32,.19-.49,.23-.58,.14-1.1-.16-1.29-.73-.13-.39-.1-.78,.09-1.15,.27-.5,1.03-.81,1.66-.25Zm.06,.92c-.04-.13-.07-.27-.13-.4-.1-.2-.27-.31-.5-.32-.24,0-.41,.1-.53,.3-.23,.39-.09,.94,.27,1.11,.43,.2,.86-.15,.88-.7Z"/>
    <path class="cls-1" d="M25.48,9.47c0-.07,.02-.12,.02-.18h.61v2.31h-.58c0-.06-.01-.13-.02-.2-.62,.39-1.17,.36-1.55-.09-.4-.48-.4-1.28,.02-1.74,.38-.43,.93-.46,1.5-.09Zm-1.18,.98c0,.41,.24,.71,.58,.72,.32,.01,.56-.19,.63-.53,.09-.4-.08-.78-.39-.9-.06-.02-.12-.03-.17-.04-.38-.02-.64,.29-.64,.74Z"/>
    <path class="cls-1" d="M27.29,11.6h-.63v-2.31h.59c0,.07,.01,.15,.02,.25,.05-.04,.09-.07,.13-.1,.29-.23,.61-.29,.97-.19,.28,.08,.49,.33,.49,.64,.01,.56,0,1.13,0,1.7h-.6c0-.14,0-.28,0-.43,0-.32,0-.64,0-.97,0-.29-.17-.47-.43-.48-.27-.01-.52,.2-.53,.47-.01,.4,0,.79,0,1.19,0,.07,0,.14,0,.23Z"/>
    <path class="cls-1" d="M13.24,11.6h-.6v-2.31h.58c0,.08,0,.16,.01,.21,.2-.09,.39-.21,.61-.26,.59-.14,1,.21,1,.82,0,.51,0,1.02,0,1.55h-.61c0-.36,0-.72,0-1.08,0-.11,0-.23,0-.34-.03-.29-.18-.45-.44-.46-.26,0-.5,.17-.52,.43-.03,.31-.02,.63-.03,.94,0,.16,0,.32,0,.51Z"/>
    <path class="cls-1" d="M23.32,10.12c-.16,0-.32,0-.48,0-.05,0-.11-.04-.14-.08-.18-.27-.38-.37-.63-.32-.25,.05-.48,.3-.48,.6,0,.19,.03,.41,.12,.58,.21,.39,.77,.39,.97,0,.1-.2,.22-.21,.39-.21,.09,0,.19,0,.28,0,.03,.51-.45,.96-1.09,.99-.6,.03-1.26-.3-1.31-1.18-.04-.62,.33-1.23,1.17-1.29,.63-.05,1.16,.36,1.21,.91Z"/>
    <path class="cls-1" d="M11.48,9.28h.59v2.32h-.59v-2.32Z"/>
    <path class="cls-1" d="M12.07,8.94h-.59v-.53h.59v.53Z"/>
  </g>
</svg>
        
